<?xml version="1.0" encoding="utf-8"?>
<!-- Generator: Adobe Illustrator 24.1.1, SVG Export Plug-In . SVG Version: 6.00 Build 0)  -->
<svg version="1.1" id="Layer_1" xmlns="http://www.w3.org/2000/svg" xmlns:xlink="http://www.w3.org/1999/xlink" x="0px" y="0px"
	 viewBox="0 0 147.4 79.4" style="enable-background:new 0 0 147.4 79.4;" xml:space="preserve">
<style type="text/css">
	.st0{fill:#FBB911;}
	.st1{fill:#FFFFFF;}
</style>
<circle class="st0" cx="53.7" cy="29.8" r="6.7"/>
<path class="st1" d="M53.7,3.4h-50l50,13.2c7.4,0,13.3,5.9,13.3,13.3c0,7.4-6,13.3-13.3,13.3c-7.4,0-13.3-6-13.3-13.4
	c0-5,2.8-9.4,6.9-11.7l-15.1-4c-3.2,4.4-5.1,9.8-5.1,15.7C27,44.5,39,56.4,53.7,56.4c14.7,0,26.7-11.8,26.7-26.5
	C80.4,15.2,68.4,3.4,53.7,3.4z"/>
<circle class="st0" cx="93.7" cy="29.8" r="6.7"/>
<path class="st1" d="M93.7,3.4h50l-50,13.2c-7.4,0-13.3,5.9-13.3,13.3c0,7.4,6,13.3,13.3,13.3c7.4,0,13.3-6,13.3-13.4
	c0-5-2.8-9.4-6.9-11.7l15.1-4c3.2,4.4,5.1,9.8,5.1,15.7c0,14.7-11.9,26.7-26.7,26.7C79,56.4,67,44.6,67,29.9
	C67,15.2,79,3.4,93.7,3.4z"/>
<path class="st0" d="M73.7,52.4c-2.6,3-5.9,5.4-9.6,6.9L73.7,76l9.6-16.7C79.6,57.7,76.3,55.4,73.7,52.4z"/>
</svg>
