<?xml version="1.0" encoding="utf-8"?>
<!-- Generator: Adobe Illustrator 25.4.1, SVG Export Plug-In . SVG Version: 6.00 Build 0)  -->
<svg version="1.1" id="Layer_1" xmlns="http://www.w3.org/2000/svg" xmlns:xlink="http://www.w3.org/1999/xlink" x="0px" y="0px"
	 viewBox="0 0 512 512" style="enable-background:new 0 0 512 512;" xml:space="preserve">
<style type="text/css">
	@media (prefers-color-scheme: dark) { 
		:root { filter: invert(100%); } 
	}
</style>
<circle cx="183.1" cy="219.8" r="24.3"/>
<circle cx="328.9" cy="219.8" r="24.3"/>
<path d="M256,302.3c-9.6,10.8-21.5,19.5-35,25.2l35,60.8l35-60.8C277.5,321.8,265.6,313.1,256,302.3z"/>
<path d="M352.1,177.2c15.1,8.3,25.3,24.3,25.3,42.7c0,26.8-21.8,48.6-48.6,48.6c-26.8,0-48.6-21.7-48.6-48.4
	c0-26.8,21.8-48.3,48.6-48.3L511,123.7H328.9c-29,0-55.1,12.6-72.9,32.6c-17.8-20-43.8-32.6-72.9-32.6H1l182.1,48.1
	c26.8,0,48.6,21.5,48.6,48.3s-21.8,48.4-48.6,48.4s-48.6-21.9-48.6-48.6c0-18.4,10.2-34.4,25.3-42.7l-55.1-14.7
	C93,178.6,86,198.4,86,219.8c0,53.7,43.5,97.1,97.1,97.1c29,0,55.1-12.6,72.9-32.6c17.8,20,43.8,32.6,72.9,32.6
	c53.7,0,97.1-43.5,97.1-97.1c0-21.4-7-41.3-18.7-57.3L352.1,177.2z"/>
</svg>
