<?xml version="1.0" standalone="no"?>
<!DOCTYPE svg PUBLIC "-//W3C//DTD SVG 1.1//EN" "http://www.w3.org/Graphics/SVG/1.1/DTD/svg11.dtd" >
<svg xmlns="http://www.w3.org/2000/svg">
<metadata>Generated by IcoMoon</metadata>
<defs>
<font id="icomoon" horiz-adv-x="1024">
<font-face units-per-em="1024" ascent="960" descent="-64" />
<missing-glyph horiz-adv-x="1024" />
<glyph unicode="&#x20;" horiz-adv-x="512" d="" />
<glyph unicode="&#xe900;" glyph-name="add" d="M512 939.52c-272.384 0-491.52-219.136-491.52-491.52s219.136-491.52 491.52-491.52c272.384 0 491.52 219.136 491.52 491.52s-219.136 491.52-491.52 491.52zM774.144 376.32h-190.464v-190.464h-143.36v190.464h-190.464v143.36h190.464v190.464h143.36v-190.464h190.464v-143.36z" />
<glyph unicode="&#xe901;" glyph-name="affiliate" d="M497.664 861.696h2.048c0 0 0 0 2.048 0v-2.048c0 0 0 0 4.096-2.048 0 0 0 0 0 0s0 0 0 0 0 0 0 0h6.144c0 0 0 0 2.048 0 0 0 0 2.048 0 2.048s0 0-2.048 0c0 0 0 0 0 4.096-2.048 2.048-2.048 2.048-4.096 2.048v0h-2.048c0 0 0 0 0 0v0 0c0 0 0 0 0 0h-2.048c0 0 0 0-2.048 0v0c-6.144-2.048-6.144-2.048-4.096-4.096zM534.528 656.896c2.048 0 4.096 2.048 4.096 4.096 0 0 0 2.048 0 4.096 0 0-2.048 2.048-4.096 2.048s-4.096-2.048-4.096-4.096c0-2.048 0-4.096 2.048-4.096 0-2.048 2.048-2.048 2.048-2.048zM466.944 839.168c2.048-2.048 2.048-2.048 0 0v-2.048c0 0 0 0 0-2.048 0 0 0 0 8.192-2.048 0 0 0 0 8.192 4.096 0 0 0 2.048 0 2.048s0 0 0 2.048c0 0 0 0 0 0l-4.096 2.048c0 0 0 0-2.048 0h-8.192c0 0 0 0-4.096 0 2.048-2.048 2.048-2.048 2.048-4.096 0 0 0 0 0 0zM264.192 335.36h2.048c0 0 0 0 2.048 0v-2.048c0 0 0 0 4.096-2.048 0 0 0 0 0 0s0 0 0 0 0 0 0 0h2.048c0 0 0 0 2.048 0 0 0 0 2.048 0 2.048s0 0-2.048 0c0 0 0 0 0 4.096-2.048 2.048-2.048 2.048-4.096 2.048v0h-2.048c0 0 0 0 0 0v0 0c0 0 0 0 0 0h-2.048c0 0 0 0-2.048 0v0c-2.048-4.096-2.048-4.096 0-4.096zM301.056 128.512c2.048 0 4.096 2.048 4.096 4.096 0 0 0 2.048 0 4.096 0 0-2.048 2.048-4.096 2.048s-4.096-2.048-4.096-4.096c0-2.048 0-4.096 2.048-4.096 0-2.048 0-2.048 2.048-2.048zM233.472 306.688c0 0 0 0 8.192-2.048 0 0 0 0 8.192 4.096 0 0 0 2.048 0 2.048s0 0 0 2.048c0 0 0 0 0 0l-4.096 2.048c0 0 0 0-2.048 0h-8.192c0 0 0 0-4.096 0 0 0 0 0-2.048-2.048 0 0 0-2.048 0-2.048s2.048 0 2.048-2.048l2.048-2.048c0 2.048 0 2.048 0 0zM860.16 417.28h2.048c0 0 0 0 2.048 0v-2.048c0 0 0 0 4.096-2.048 0 0 0 0 0 0s0 0 0 0 0 0 0 0h2.048c0 0 0 0 2.048 0 0 0 0 2.048 0 2.048s0 0-2.048 0c0 0 0 0 0 4.096-2.048 2.048-2.048 2.048-4.096 2.048v0h-2.048c0 0 0 0 0 0v0 0c0 0 0 0 0 0h-4.096c0 0 0 0-2.048 0v0c0-2.048 2.048-2.048 2.048-4.096zM897.024 210.432c2.048 0 4.096 2.048 4.096 4.096 0 0 0 2.048 0 4.096 0 0-2.048 2.048-4.096 2.048s-4.096-2.048-4.096-4.096c0-2.048 0-4.096 2.048-4.096 0-2.048 2.048-2.048 2.048-2.048zM831.488 390.656c0 0 0 0 8.192-2.048 0 0 0 0 8.192 4.096 0 0 0 2.048 0 2.048s0 0 0 2.048c0 0 0 0 0 0l-4.096 2.048c0 0 0 0-2.048 0h-8.192c0 0 0 0-4.096 0 0 0 0 0-2.048-2.048 0 0 0-2.048 0-2.048s2.048 0 2.048-2.048l2.048-2.048c0 0 0 0 0 0zM811.008 460.288c-79.872 0-147.456-47.104-176.128-116.736l-137.216 51.2-16.384 126.976c92.16 14.336 161.792 94.208 161.792 190.464 0 106.496-86.016 192.512-192.512 192.512s-192.512-86.016-192.512-192.512 86.016-192.512 192.512-192.512c0 0 0 0 2.048 0l18.432-135.168-100.352-79.872c-34.816 45.056-90.112 73.728-151.552 73.728-106.496 0-192.512-86.016-192.512-192.512s86.016-192.512 192.512-192.512 192.512 86.016 192.512 192.512c0 34.816-8.192 65.536-24.576 94.208l108.544 86.016 131.072-49.152c-4.096-16.384-6.144-30.72-6.144-49.152 0-106.496 86.016-192.512 192.512-192.512s192.512 86.016 192.512 192.512-88.064 192.512-194.56 192.512zM587.776 620.032l-4.096-2.048 4.096 4.096c2.048 0 0 0 0-2.048zM612.352 693.76l4.096 2.048c0 0 0 0 0-2.048v0c-2.048 0-4.096 0-4.096 0v0zM608.256 710.144v-4.096 8.192c-2.048-2.048 0-2.048 0-4.096zM593.92 640.512l2.048 4.096c0 0 0 0 0 0 0 2.048 0 2.048 2.048 4.096l2.048 4.096v2.048c0 0 0 0 0 0l6.144 8.192h2.048c0 0 0 0 0 0l2.048 2.048c-4.096-14.336-10.24-26.624-16.384-38.912 0 0 0 0 0 0s0 0-2.048-2.048c0 0 0 2.048 0 2.048s0 0-2.048 0v0c0 0 0 0 0 0s0 0 0 2.048v0 0 0l4.096 12.288zM573.44 787.968v0 0c4.096 0 4.096 0 4.096 0v0c0 0 0 0 0 0s0 0 0 0l6.144-6.144h-2.048c-2.048 2.048-2.048 2.048-2.048 2.048v0c0 0-2.048 0-4.096-2.048 0 0-2.048 0-2.048 0v0 6.144c0 0 0 0 0 0zM571.392 771.584v0c0 2.048 0 2.048 0 0l2.048-4.096c0 0-2.048 0-2.048 0v0 0 0c0 4.096 0 4.096 0 4.096zM555.008 765.44c0 0 0 0 0 0v0 2.048c0 0 0 0 0 2.048v2.048c0 0 0 0 0 0l2.048 4.096c0 0 0 0 0 2.048v0 0 0c0 0 0 0 0 0s0 0 0 0v0l2.048-2.048c0 0 0 0 0 0s0-2.048 0-2.048v0 0 0h2.048c0 0 0 0 0 0s0 0 0-2.048c0 0 0 0 6.144-2.048 2.048 0 2.048 2.048 2.048 4.096v0c0 0 0 0 2.048 0h4.096c0 0 0 0 0 0v0c0 0 0-2.048 0-2.048s0 0 2.048-2.048v0c0 0 0 0 0 0v0c0 0 0-2.048 0-2.048v-6.144h-4.096c0 0-2.048 0-2.048 0v-2.048l-6.144 2.048c0 0 0 0 0 0s-2.048 0-2.048 0v0 0c-2.048 0-4.096 0-4.096 0s0 0 0 0 0 0 0 0h-2.048v-2.048l-6.144 4.096-8.192 2.048c0 2.048 0 2.048 0 4.096 0 0 0 0 0-2.048 0 0 0 0 0 0s2.048 0 2.048 0 0 0 0 0 8.192-6.144 10.24-2.048zM550.912 775.68v0h-2.048c0 0 0 0-2.048 0 0 0 0 0 0-2.048 0 0 0 0 0-2.048v0c0-2.048 2.048-2.048 4.096-4.096 0 0 0 0 0 0s-2.048 0-2.048-2.048c0 0 0 2.048 0 2.048s0 0 0 0h-2.048l-2.048 2.048h-16.384c0 0 0 0 0 0l-8.192-4.096-8.192 2.048h4.096c0 0 0 0 0 0l2.048 2.048c0 0 0 0 2.048 2.048 0 0 0 0 0 2.048v4.096h2.048c0 0 0 0 0 0s0 0 0 0h2.048c0 0 0 0 0 0v6.144h4.096l2.048 2.048c0 0 0 0 0 0s0 0 0 0 0 0 0-2.048c0 0 0 0 0-2.048 0 0 0 0 0 0v0 0c0 0 0-2.048 0-4.096s2.048-2.048 2.048-2.048v0h2.048c0 0 2.048 0 2.048 2.048 0 0 0 0 0 4.096 0 0 0 0-2.048 2.048 0 0 0 0 0 2.048l2.048-2.048c0 0 0 0 0 0l14.336-8.192zM544.768 822.784v0-4.096c0 0-2.048 0-4.096 0v0l-4.096-2.048c0 0 0 0 0 0v10.24c0 0 0 0 0 0h2.048c4.096-2.048 4.096-2.048 6.144-4.096-2.048 2.048-2.048 2.048 0 0-2.048 0-2.048 0 0 0zM358.4 828.928v0l4.096 4.096c2.048 0 4.096 2.048 6.144 2.048l4.096 2.048c0 0 0 0 0 0v0h2.048c0 0 0-2.048 0-2.048s2.048 0 2.048 0v0 0c0 0-2.048-2.048-2.048-4.096 0 0 0-2.048-2.048-2.048h-4.096c0 0 0 0 0 0v-6.144l-8.192-2.048c0 0 0 0 0 0s0 0 0 0l-2.048 4.096v4.096c0 0-2.048 0 0 0v0zM278.528 708.096v0c2.048-2.048 2.048-2.048 2.048 0h2.048l2.048-4.096v-2.048l4.096-4.096 4.096-12.288c0 0 0 0 0 0v0c0 0 0 0 2.048 0v0l2.048-2.048c0 0 0 0 0 0s0 0 0 0 0 0 0 0v-2.048c0 0 0 0 2.048 0h2.048c0 0 0 0 0 0v0c0-4.096 2.048-8.192 2.048-12.288v-10.24c0 0 0 0 0 0s0 0 0 0c0-2.048 0-2.048 0-4.096v0 0c0 0 0 0 0 0v0 0l4.096-6.144 6.144-4.096 4.096-4.096c0 0 0 0 0 0 4.096-6.144 10.24-14.336 12.288-14.336l8.192-4.096c0 0 2.048 0 4.096-2.048v0c4.096-4.096 8.192-12.288 12.288-16.384 8.192-10.24 10.24-14.336 22.528-24.576l4.096-2.048c0 0 0 0 2.048-2.048v0c0 0 2.048 0 2.048 0s0 0 2.048-2.048c0 0 0 0 2.048 0v-2.048c0 0 0 0 0 0h2.048c0 0 0 0 0 0s2.048 0 2.048-2.048c-63.488 2.048-112.64 65.536-114.688 139.264zM301.056 720.384v0c0 0 0 0 0 0 2.048-2.048 2.048-4.096 4.096-4.096 0 0 2.048 0 2.048 0 2.048 0 4.096 2.048 4.096 4.096 0 0 0 2.048 0 2.048v0 0-2.048c0 0 0-2.048 2.048-2.048v0c0 0 0 0-2.048-2.048 0 0 0 0 0-2.048 0 0 0 0 0-2.048 0 0 0 0 2.048-2.048v0c0 0 0 0 0 0s0 0 0 0v0h2.048c0 0 0 2.048 0 2.048v0c0 0 2.048 0 6.144-2.048 0 0 0 0 0 0s0 0 0 0h8.192c0 0 0 0 2.048 0h4.096c0 0 0 0 2.048 0v0c0 0 0 0 2.048 0v0 0c0 0 0-2.048 2.048-2.048v0c0 0 0-2.048 0-4.096v0c0 0 0-2.048 2.048-2.048v0 0c0 0 0-2.048 0-2.048s0 0 0-2.048c0 0 0 0 0-2.048 0 0 0 0 0-2.048 0 0 0-2.048 0-2.048v0c0 0 0-2.048 2.048-2.048v0l-4.096 2.048h-6.144c0 0 0 0 0 0v0 0l-4.096 2.048-4.096 4.096c0 0 0 0 0 0v0c0 0-2.048 0-2.048 0v0 0c0 0 0 0 0 0s0 0-2.048 0l-8.192-4.096c0 0 0 0 0 0s0 0 0 0l-2.048-4.096-2.048 2.048h-4.096l-2.048 2.048v12.288c0 0-2.048 2.048-2.048 4.096v0 0c0 0 0 0 0 0h-4.096v4.096l2.048 10.24c0 0 0 0 0 0v0c-2.048 0-2.048 0 0-4.096-2.048 2.048 0 2.048 0 0zM313.344 718.336h4.096c0 0 0-2.048 0-2.048v0c-2.048 0-4.096 2.048-4.096 2.048v0zM399.36 550.4v0c0 0 0 0 0 0s0 0 0 0zM421.888 550.4c0 0 0 0 0 0h-2.048c0 0 0-2.048 0-2.048s0 0 0 0h-2.048c0 0 0 0 0 0v0c0 0 0 0 0 0h-2.048l-6.144 6.144c0 0 0 0 0 0v2.048c-2.048 2.048-2.048 4.096-4.096 4.096 0 0 0 0 0 0v0c0 0 0 0 0 2.048 0 0 0 0 0 0l2.048 2.048c0 0 0 0 0 0v4.096c0 0 0 0 0 0v2.048c0 0 0 0 0 0v4.096c0 0 0 0 0 0v2.048c0 0 0 0 0 2.048l-4.096 8.192c4.096 2.048 8.192 4.096 10.24 6.144 0 0 0 0 0 0v2.048c0 4.096 0 8.192 2.048 10.24v0 8.192h2.048c0 0 0 0 0 0l2.048 4.096 4.096 4.096c0 0 0 0 0 0l-2.048 8.192c0 0 0 0 0 0-4.096 2.048-10.24 4.096-14.336 8.192 0 0 0 0 0 0l-10.24 4.096-4.096 2.048-4.096 14.336c0 0 0 0 0 0v0c0 0 0 0 0 2.048v0c0 0 0 0-2.048 0l-4.096 2.048-4.096 6.144c0 0 0 0 0 0l-10.24 6.144-2.048 2.048h-4.096l-6.144 4.096c0 0 0 0 0 2.048 0 0 0 2.048 0 2.048l2.048 2.048c0 0 0 2.048-2.048 2.048s-4.096 0-4.096 0c0 0 0 0 0 2.048 0 0 0 0 0 2.048 0 0 0 0 0 2.048 0 0 0 0 0 2.048 0 0 0 0 0 0s0 2.048 0 4.096v0c0 0 2.048 0 2.048 2.048 0 0 0 0 0 4.096 0 0 0 0-2.048 0 0 0 0 0 0 2.048 0 0 0 0-2.048 0v0c0 0 0 2.048-2.048 2.048s-4.096 0-4.096 0c0 0-2.048 0-2.048 0v0c0 0 0 0-2.048 0 0 0 0 0-2.048 2.048v4.096c0 0 0 0-2.048 0 0 0 0 0-2.048 0l-6.144 4.096h-4.096c0 0 2.048 0 2.048 2.048 0 0 0 0 0 4.096 0 0-2.048 2.048-2.048 0 0 0 0 0-2.048 0 0 0 0-2.048 0-2.048-2.048 0-4.096 2.048-4.096 4.096-2.048 2.048-4.096 4.096-6.144 4.096v0c0 0 0 0 0 0h-4.096c0 0 0 0 0 0s0 0-4.096-4.096c0 0 0 0 0 0v0l-6.144-2.048c0 0 0 0 0 0l-2.048-6.144h-2.048l-2.048 4.096 2.048 10.24 2.048 4.096 2.048 2.048c2.048 2.048 4.096 6.144 4.096 8.192h2.048l4.096-4.096c0 0 0 0 2.048 0s2.048 2.048 2.048 4.096l4.096-2.048v-12.288c0 0 0 0 0-2.048 2.048 0 2.048 0 2.048 0v0 0c0 0 0 0 0 0v-2.048c0 0 0 0 2.048-2.048h4.096c0 0 2.048 0 2.048 2.048 0 0 0 0 0 4.096 0 0 0 2.048-2.048 2.048h-2.048v4.096c0 4.096 2.048 6.144 2.048 8.192l4.096 6.144 4.096 4.096c2.048 2.048 4.096 4.096 8.192 4.096 0 0 0 0 0 0s0 0 0 0c0 2.048 0 4.096 0 4.096s2.048 0 2.048 0l6.144 6.144v2.048h6.144c0 0 0 0 0 0l2.048 2.048c0 0 0 0 0 2.048l2.048 2.048h2.048l4.096 2.048c0 0 0 0 0-2.048v0c0 0 0 0 2.048 0s6.144 2.048 8.192 4.096h4.096c0 0 0 0 0 0v0h2.048c0 0 0 0 2.048 2.048v0c0 0 0 2.048 0 2.048v2.048c0 0 0 0 0 2.048 0 0 0 0-2.048 0 0 0 0 0-6.144-4.096v2.048c0 0 0 0 0 2.048 0 0 0 0 0 0l2.048 2.048c0 0 0 0 0 2.048 0 0 0 0 0 0h6.144c0 0 0 0 0-2.048s0 0 0-2.048l2.048-2.048c0 0 0-2.048 0-2.048s0 0 4.096-2.048v0c0 0 0 0 2.048 0h2.048c0 0 0 0 0 0s0 0 0 0h2.048c0 0 0 0 4.096 2.048v0c0 0 0 0 0 2.048s0 2.048 0 2.048v0c0 0 0 0 0 2.048s0 0-2.048 2.048l2.048 2.048c0 0 0 2.048 0 2.048s0 0 0 0l2.048 2.048c0 0 0 0 0 0h-2.048c0 0 0 2.048 0 4.096s0 2.048 0 2.048v0 0c0 4.096 0 6.144 0 6.144s0 2.048 0 2.048c0 0 0 0 2.048 2.048v0 0c0 0 0 0 4.096 4.096v0c0 0 0 0 8.192 4.096v0c0 0 0 0-4.096 4.096l2.048 2.048c0 0 0 0-2.048 6.144 0 0 0 0 0 0s0 0 2.048 2.048v0c2.048 0 4.096 2.048 4.096 2.048v0 0c0 0 0 0 0 0l4.096 4.096c0 0 0 0 0 0v0 0 0c2.048 0 2.048 0 4.096 0h2.048v-4.096c0 0 0 0 0 0v0c0 0 0 0 0 0v0c0 0 0 0 0 0h4.096c0 0 0 0-4.096-2.048v0-4.096c0 0 0 0 0 0v0 0 0l2.048-6.144c0 0 0 0 0 0s0 0 0 0 0 0 0 0h2.048v-2.048c0 0 0 0 0 0s0 0 2.048 0h4.096c0 0 0 0 0 0l2.048 2.048c2.048 2.048 4.096 4.096 6.144 6.144l6.144-2.048c0 0 0 0 0 0s0 0 4.096 2.048l4.096 2.048v-2.048c0 0 0 0 0 0v0c2.048 2.048 6.144 4.096 10.24 4.096 0 0 0 0 2.048 0v0c0 0 0 2.048 0 2.048v0c0 0 0 0 0 0v0 4.096c0 0 0 0 0 2.048 0 0 0 2.048-2.048 4.096 0 0 0 0 0 0v0c0 0 0 0 2.048 0h2.048c0 0-2.048 2.048-4.096 2.048 0 0 0 0-2.048 0 0 0 0 0 0 0s0 0-2.048 0c0 0 0 0 0 0v0c0 0 0 2.048-2.048 2.048s-4.096 2.048-4.096 2.048c-2.048 0-4.096 0-8.192 0 0 0-2.048 0-2.048 0s-2.048 0-4.096 0c0 0 0 0-2.048 0 0 0 0 0-2.048 0s-4.096-2.048-4.096-4.096v0c0 0 0 0-2.048 0s-2.048 0-2.048 0 0 0 0 0 0 2.048-2.048 2.048v0c0 0 0 0-2.048 0 0 0 0 2.048-2.048 4.096v0c0 0-2.048 0-2.048 0s0 0 0-2.048c0 0 0 0 0 0s0 0 0 0 0 0-2.048-2.048c0 0 0 0-2.048 0v0c0 0-2.048-2.048-2.048-2.048s-2.048-2.048-2.048-2.048c0 0 0 0 0 0v8.192c0 0 0 2.048-2.048 2.048 0 0 0 0-2.048 0l-2.048-2.048c0 0 0 0 0 0v-4.096c0 0 0 0 0-2.048 0 0 0 0-2.048 0v0 4.096c0 0 0 0 0 2.048 0 0 0 0-2.048 0s0 0-4.096-2.048c0 0 0 0 0 0v-2.048c0 0 0 0 0 0v0c0 0 0 0-2.048 2.048v0c0 0 0 0-2.048 0 0 0-2.048 0-2.048 0v0c0 4.096 0 4.096-2.048 4.096h-4.096c0 0 0 0 0 0l-4.096-2.048c0 0 0 0-2.048-2.048 0 0 0 0 0 0h-2.048l-6.144-2.048-8.192-4.096c0 0 0 0 0 0s0-2.048 0-2.048c0 0 0 0 0 0v0c0 0 0 0 0 0s0 0 0 0 0 0-2.048 0v0c24.576 14.336 53.248 22.528 83.968 22.528 32.768 0 63.488-10.24 90.112-26.624 0 0 0 0 0 0s0 0 0 0 0 0 6.144-4.096v0c0 0 0 0 0 0v0c0 0-2.048 0-2.048 0v0c0 0-2.048 0-2.048 0s-2.048 0-2.048 0c0 0 0 0 0 0h-14.336c0 0 0 0 0 0h-4.096c0 0 0 0 0 0v0c0 0 0 0 0 0v0 0c0 0 0 0 0 0v0-6.144c0 0 0 0 0 0l-8.192-8.192c0 0 0-2.048 0-2.048l4.096-6.144v-2.048c0 0 0 0 0 0s2.048 0 4.096-2.048c0 0 0 0 0 0v-4.096c0 0 0 0 0 0l2.048-2.048c0 0 0 0 0 0h-2.048c0 0 0 0 0 0v-2.048c0 0 0 0 0 0v0-2.048c0 0 0 0-8.192 8.192v2.048c0 0 0 0-4.096 2.048v0c0 0 0 0-2.048 0h-2.048c-2.048 0-2.048 0-2.048-6.144 0 0 0 0 0 0v0 0 0 0c0 0 0 0 0 0s0 0 0 0 0 0-2.048-2.048c0 0 0 0 0-2.048v-2.048c0 0 0 0 0 0s0 0 0 0v-2.048c0 0 0 0 0-2.048 0 0 0 0 2.048 0h4.096l4.096 2.048c0 0 0 0 0 0v0 0c0 0 0 0 0 0s0 0 0 0v-2.048c0 0 0 0 0-2.048 0 0 0 0 2.048 0h-4.096v-2.048c0 0 0 0 0 0s0 0 0 0 0-2.048 0-2.048v0 0c0 0 2.048 0 2.048 0l2.048-8.192v-2.048c-2.048 0-2.048 0-8.192 0 0 0 0 0-2.048 0v0 0c0 0 0 0 0 0s0 0 0 0v0c0 0 0 0 0 0s0 0 0 0c0-2.048 0-4.096 0-6.144l-6.144-8.192c0 0 0 0 0 0s0 0 0 0 0 0 0 0v0l2.048-4.096c0 0 2.048-2.048 2.048-2.048h2.048v-2.048l-8.192-8.192-2.048-6.144-6.144-4.096h-4.096c-2.048-2.048-4.096-6.144-4.096-8.192s-2.048-2.048-2.048-4.096l-4.096-8.192c0 0 0-2.048 0-2.048v0 0-10.24l-4.096-8.192c0 0 0-2.048 0-2.048l2.048-2.048c0 0 0-2.048 0-2.048s0 0 0 0v0 0l4.096-4.096 4.096-6.144c0 0 0 0 0 0l4.096-4.096c0 0 0 0 0 0l6.144-4.096 2.048-2.048c0 0 2.048 0 4.096 0h18.432c0 0 0 0 0 0v0c0 0 0 0 0 0l2.048 2.048h20.48l2.048-4.096c0 0 0 0 2.048 0h4.096l2.048-4.096-4.096-8.192 4.096-8.192v-6.144l-2.048-10.24-4.096-2.048-2.048-4.096c0 0 0 0 0 0s0 0 0 0c0-2.048-2.048-4.096-2.048-6.144v0c0 0 0 0 0 0v-4.096c-2.048-6.144-4.096-12.288-6.144-18.432v0l-2.048-4.096c0-2.048 0-2.048-2.048-4.096l-2.048-2.048c0 0-2.048-2.048-2.048-4.096v0c0 0 0 0 0-2.048v0c0 0 2.048 0 2.048 0s0 0 0 0 0 0 2.048 0 6.144 0 8.192 2.048l4.096 2.048 8.192 6.144c0 0 4.096 2.048 4.096 2.048l6.144 6.144c0 0 0 0 0 0s2.048 0 2.048 2.048l4.096 4.096 2.048 4.096 4.096-2.048c0 0 2.048 0 2.048 2.048v0c2.048 2.048 4.096 4.096 6.144 4.096v0c0 0 0 0 0-2.048v0l-2.048-4.096-4.096-4.096c0 0 0 0-4.096-8.192 0 0 0-2.048 0-2.048s0 0 0 0c-30.72-30.72-73.728-49.152-118.784-49.152-8.192 0-18.432 0-26.624 2.048 0 0 0 0 0 0v0c0 0 0 0 0 0v0c4.096-8.192 4.096-8.192 2.048-6.144v0zM393.216 837.12v0c0-2.048 0-2.048 4.096-4.096l-4.096-2.048c0 0 0 2.048 0 2.048l-2.048 4.096c0 0 0 0 2.048 0zM393.216 843.264l4.096 4.096c0 0 2.048 0 2.048 0l-2.048-2.048v-2.048h-4.096zM391.168 843.264l-2.048-2.048c-2.048 0-2.048 0-2.048-2.048h-2.048v2.048c0 0 0 0 0 0h6.144c0 2.048 0 2.048 0 2.048zM339.968 261.632v0 0c4.096 0 4.096 0 4.096 0v0c0 0 0 0 0 0s0 0 0 0l6.144-6.144h-2.048c0 4.096 0 4.096 0 4.096v0c0 0-2.048 0-4.096-2.048 0 0-2.048 0-2.048 0v0l-2.048 2.048v2.048c0 0 0 0 0 0zM337.92 245.248v0c0 0 0 0 0 0l2.048-4.096c0 0-2.048 0-2.048 0v0 0 0c0 2.048 0 4.096 0 4.096zM317.44 247.296v0h-2.048c0 0 0 0-2.048 0 0 0 0 0 0-2.048s0 0 0-2.048v0c0-2.048 2.048-2.048 4.096-4.096 0 0 0 0 0 0s-2.048 0-2.048-2.048c0 0 0 2.048 0 2.048s0 0 0 0h-2.048l-2.048 4.096h-18.432c0 0 0 0 0 0l-8.192-4.096-4.096 2.048h4.096c0 0 0 0 0 0l2.048 2.048c0 0 0 0 2.048 2.048 0 0 0 0 0 2.048v4.096h2.048c0 0 0 0 0 0s0 0 0 0h2.048c0 0 0 0 0 0v2.048h4.096l2.048 2.048c0 0 0 0 0 0s0 0 0 0 0 0 0-2.048c0 0 0 0 0-2.048 0 0 0 0 0 0v0 0c0 0 0-2.048 0-4.096s2.048-2.048 2.048-2.048v0h2.048c0 0 2.048 0 2.048 2.048 0 0 0 0 0 4.096 0 0 0 0-2.048 2.048 0 0 0 0 0 2.048l2.048-2.048c0 0 0 0 0 0l12.288-6.144zM309.248 296.448v0-4.096c0 0-2.048 0-4.096 0v0l-2.048-2.048c0 0 0 0 0 0v10.24c0 0 0 0 0 0h2.048c2.048-2.048 4.096-2.048 4.096-4.096 0 0 0 0 0 0s0 0 0 0zM124.928 302.592v0l4.096 4.096c2.048 0 4.096 2.048 6.144 2.048l4.096 2.048c0 0 0 0 0 0v0h2.048c0 0 0-2.048 0-2.048s2.048 0 2.048 0v0 0c0 0-2.048-2.048-2.048-4.096 2.048 0 2.048 0 2.048-2.048h-4.096c0 0 0 0 0 0l-4.096-6.144-8.192-2.048c0 0 0 0 0 0s0 0 0 0l-2.048 4.096v4.096c0-2.048-2.048-2.048 0 0v0zM45.056 179.712v0c2.048-2.048 2.048-2.048 2.048 0h2.048l2.048-4.096v-2.048l4.096-4.096 6.144-10.24c0 0 0 0 0 0v0c0 0 0 0 2.048 0v0l2.048-2.048c0 0 0 0 0 0s0 0 0 0 0 0 0 0v-2.048c0 0 0 0 2.048 0h2.048c0 0 0 0 0 0v0c0-4.096 2.048-8.192 2.048-12.288v-10.24c0 0 0 0 0 0s0 0 0 0c0-2.048 0-2.048 0-4.096v0 0c0 0 0 0 0 0v0 0l4.096-6.144 6.144-4.096 4.096-4.096c0 0 0 0 0 0 4.096-6.144 10.24-14.336 12.288-14.336l8.192-4.096c0 0 2.048 0 4.096-2.048v0c4.096-4.096 8.192-12.288 12.288-16.384 8.192-10.24 10.24-14.336 22.528-24.576l4.096-2.048c0 0 0 0 2.048-2.048v0c0 0 2.048 0 2.048 0s0 0 2.048-2.048c0 0 0 0 2.048 0v-2.048c0 0 0 0 0 0h2.048c0 0 0 0 0 0s2.048 0 2.048-2.048c-65.536 2.048-114.688 63.488-116.736 137.216zM65.536 194.048v0c2.048 0 2.048 0 0 0 2.048-2.048 2.048-4.096 4.096-4.096 0 0 2.048 0 2.048 0 2.048 0 4.096 2.048 4.096 4.096 0 0 0 2.048 0 2.048v0 0-2.048c0 0 0-2.048 2.048-2.048v0c0 0 0 0-2.048-2.048 0 0 0 0 0-2.048 0 0 0 0 0-2.048 0 0 0 0 2.048-2.048v0c0 0 0 0 0 0s0 0 0 0v0h2.048c0 0 0 2.048 0 2.048v0c0 0 2.048 0 6.144-2.048 0 0 0 0 0 0s0 0 0 0h8.192c0 0 0 0 2.048 0h4.096c0 0 0 0 2.048 0v0c0 0 0 0 2.048 0v0 0c0 0 0-2.048 2.048-2.048v0c0 0 0-2.048 0-4.096v0c0 0 0-2.048 2.048-2.048v0 0c0 0 0-2.048 0-2.048s0 0 0-2.048c0 0 0 0 0-2.048 0 0 0 0 0-2.048 0 0 0-2.048 0-2.048v0c0 0 0-2.048 2.048-2.048v0l-4.096 2.048h-6.144c0 0 0 0 0 0v0 0l-6.144 2.048-4.096 4.096c0 0 0 0 0 0v0c0 0-2.048 0-2.048 0v0 0c0 0 0 0 0 0s0 0-2.048 0l-4.096-4.096c0 0 0 0 0 0s0 0 0 0l-4.096-6.144-2.048 2.048h-4.096l-2.048 2.048v12.288c0 0-2.048 2.048-2.048 4.096v0 0c0 0 0 0 0 0h-4.096v4.096l2.048 10.24c0 0 0 0 0 0v0c0 2.048 0 2.048 0-2.048 0 0 0 0 0 0zM77.824 189.952h4.096c0 0 0-2.048 0-2.048v0c0 2.048-2.048 2.048-4.096 2.048v0zM165.888 24.064v0c0-2.048 0-2.048 0 0 0-2.048 0-2.048 0 0zM344.064 83.456v0l-2.048-4.096-4.096-4.096c0 0 0 0-4.096-8.192 0 0 0-2.048 0-2.048s0 0 0 0c-30.72-30.72-73.728-49.152-118.784-49.152-8.192 0-18.432 0-26.624 2.048 0 0 0 0 0 0v0c0 0 0 0 0 0v0c0 0 0 0 0 2.048l-2.048 2.048c0 0 0 0-2.048 0v0 0 0c0 0 0-2.048 0-2.048s0 0 0 0h-2.048c0 0 0 0 0 0v0c0 0 0 0 0 0h-2.048l-2.048 2.048c0 0 0 0 0 0v2.048c-2.048 2.048-2.048 4.096-4.096 4.096 0 0 0 0 0 0v0c0 0 0 0 0 2.048 0 0 0 0 0 0l-4.096 8.192c0 0 0 0 0 0v4.096c0 0 0 0 0 0v2.048c0 0 0 0 0 0v4.096c0 0 0 0 0 0v10.24c0 0 0 0 0 2.048l-4.096 8.192c4.096 2.048 8.192 4.096 10.24 6.144 0 0 0 0 0 0v2.048c0 4.096 0 8.192 2.048 10.24v0 8.192h2.048c0 0 0 0 0 0l2.048 4.096 4.096 4.096c0 0 0 0 0 0l-2.048 8.192c0 0 0 0 0 0-4.096 2.048-10.24 4.096-14.336 8.192 0 0 0 0 0 0l-6.144 6.144-4.096 2.048-4.096 4.096c0 0 0 0 0 0v0c0 0 0 0 0 2.048v0c0 0 0 0-2.048 0l-4.096 2.048-6.144 6.144c0 0 0 0 0 0l-8.192 4.096-2.048 2.048h-4.096l-6.144 4.096c0 0 0 0 0 2.048s0 2.048 0 2.048l2.048 2.048c0 0 0 2.048-2.048 2.048s-4.096 0-4.096 0c0 0 0 0 0 2.048 0 0 0 0 0 2.048 0 0 0 0 0 2.048 0 0 0 0 0 2.048 0 0 0 0 0 0s0 2.048 0 4.096v0c0 0 2.048 0 2.048 2.048 0 0 0 0 0 4.096 0 0 0 0-2.048 0 0 0 0 0 0 2.048 0 0 0 0-2.048 0v0c0 0 0 2.048-2.048 2.048s-4.096 0-4.096 0c0 0-2.048 0-2.048 0v0c0 0 0 0-2.048 0 0 0 0 0-2.048 2.048v4.096c0 0 0 0-2.048 0 0 0 0 0-2.048 0l-4.096 2.048h-8.192c0 0 2.048 0 2.048 2.048 0 0 0 0 0 4.096 0 0-2.048 2.048-2.048 0 0 0 0 0-2.048 0 0 0 0-2.048 0-2.048-2.048 4.096-4.096 6.144-6.144 6.144-2.048 2.048-4.096 4.096-6.144 4.096v0c0 0 0 0 0 0h-4.096c0 0 0 0 0 0s0 0-4.096-4.096c0 0 0 0 0 0v0l-6.144-2.048c0 0 0 0 0 0l-2.048-6.144h-2.048l-2.048 4.096 2.048 10.24 2.048 4.096 2.048 2.048c2.048 2.048 4.096 6.144 4.096 8.192h-2.048l4.096-4.096c0 0 0 0 2.048 0s2.048 2.048 2.048 4.096h4.096v-12.288c0 0 0 0 0-2.048 2.048 0 2.048 0 2.048 0v0 0c0 0 0 0 0 0v-2.048c0 0 0 0 2.048-2.048h4.096c0 0 2.048 0 2.048 2.048s0 0 0 4.096c0 0 0 2.048-2.048 2.048h-2.048v4.096c0 4.096 2.048 6.144 2.048 8.192l4.096 6.144 4.096 4.096c2.048 2.048 4.096 4.096 8.192 4.096 0 0 0 0 0 0s0 0 0 0c0 2.048 0 4.096 0 4.096s2.048 0 2.048 0l6.144 6.144v2.048h6.144c0 0 0 0 0 0l2.048 2.048c0 0 0 0 0 2.048l2.048 2.048h6.144l6.144 6.144c0 0 0 0 0-2.048v0c0 0 0 0 2.048 0s6.144 2.048 8.192 4.096h4.096c0 0 0 0 0 0v0 0c0 0 0 0 2.048 2.048v0c0 0 0 2.048 0 2.048v2.048c0 0 0 0 0 2.048 0 0 0 0-2.048 0s0 0-6.144-4.096v2.048c0 0 0 0 0 2.048 0 0 0 0 0 0l6.144 2.048c0 0 0 0 0 2.048 0 0 0 0 0 0h6.144c0 0 0 0 0-2.048s0 0 0-2.048l2.048-2.048c0 0 0-2.048 0-2.048s0 0 4.096-2.048v0c0 0 0 0 2.048 0h2.048c0 0 0 0 0 0s0 0 0 0h2.048c0 0 0 0 4.096 2.048v0c0 0 0 0 0 2.048s0 2.048 0 2.048v0c0 0 0 0 0 2.048 0 0 0 0-2.048 2.048l2.048 2.048c0 0 0 2.048 0 2.048s0 0 0 0l2.048 2.048c0 0 0 0 0 0h-4.096c0 0 0 2.048 0 4.096s0 2.048 0 2.048v0 0c0 4.096 0 6.144 0 6.144s0 2.048 0 2.048c0 0 0 0 2.048 2.048v0 0c0 0 0 0 4.096 4.096v0c0 0 0 0 8.192 4.096v0c0 0 0 0-4.096 4.096l2.048 2.048c0 0 0 0-2.048 6.144 0 0 0 0 0 0s0 0 2.048 2.048v0c2.048 0 4.096 2.048 4.096 2.048v0 0c0 0 0 0 0 0l4.096 4.096c0 0 0 0 0 0v0 0 0c2.048 0 2.048 0 4.096 0h2.048v-4.096c0 0 0 0 0 0v0c0 0 0 0 0 0v0c0 0 0 0 0 0h6.144c0 0 0 0-4.096-2.048v0-4.096c0 0 0 0 0 0v0 0 0l-2.048-14.336c0 0 0 0 0 0s0 0 0 0 0 0 0 0h2.048v-2.048c0 0 0 0 0 0s0 0 2.048 0h4.096c0 0 0 0 0 0l2.048 2.048c2.048 2.048 4.096 4.096 6.144 6.144l4.096 2.048c0 0 0 0 0 0s0 0 4.096 2.048l4.096 2.048v-2.048c0 0 0 0 0 0v0c2.048 2.048 6.144 4.096 10.24 4.096 0 0 0 0 2.048 0v0c0 0 0 2.048 0 2.048v0c0 0 0 0 0 0v0 4.096c0 0 0 0 0 2.048 0 0 0 2.048-2.048 4.096 0 0 0 0 0 0v0c0 0 0 0 2.048 0h2.048c0 0-2.048 2.048-4.096 2.048 0 0 0 0-2.048 0 0 0 0 0 0 0s0 0-2.048 0c0 0 0 0 0 0v0c0 0 0 2.048-2.048 2.048s-4.096 2.048-4.096 2.048c-2.048 0-4.096 0-8.192 0 0 0-2.048 0-2.048 0s-2.048 0-4.096 0c0 0 0 0-2.048 0 0 0 0 0-2.048 0s-4.096-2.048-4.096-4.096v0c0 0 0 0-2.048 0s-2.048 0-2.048 0 0 0 0 0 0 2.048-2.048 2.048v0c0 0 0 0-2.048 0 0 0 0 2.048-2.048 4.096v0c0 0-2.048 0-2.048 0s0 0 0-2.048c0 0 0 0 0 0s0 0 0 0 0 0-2.048-2.048c0 0 0 0-2.048 0v0c0 0-2.048-2.048-2.048-2.048s-2.048-2.048-2.048-2.048c0 0 0 0 0 0v2.048c0 0 0 2.048-2.048 2.048 0 0 0 0-2.048 0l-2.048-2.048c0 0 0 0 0 0l-2.048-2.048c0 0 0 0 0-2.048 0 0 0 0-2.048 0v0 4.096c0 0 0 0 0 2.048 0 0 0 0-2.048 0 0 0 0 0-4.096-2.048 0 0 0 0 0 0v-2.048c0 0 0 0 0 0v0c0 0 0 0-2.048 2.048v0c0 0 0 0-2.048 0 0 0-2.048 0-2.048 0v0c0 4.096 0 4.096-2.048 4.096h-4.096c0 0 0 0 0 0l-4.096-2.048c0 0 0 0-2.048-2.048 0 0 0 0 0 0h2.048l-6.144-2.048-4.096-2.048c0 0 0 0 0 0s0-2.048 0-2.048c0 0 0 0 0 0v0c0 0 0 0 0 0s0 0 0 0 0 0-2.048 0v0c24.576 14.336 53.248 22.528 83.968 22.528 32.768 0 63.488-10.24 90.112-26.624 0 0 0 0 0 0s0 0 0 0 0 0 6.144-4.096v0c0 0 0 0 0 0v0c0 0-2.048 0-2.048 0v0c0 0-2.048 0-2.048 0s-2.048 0-2.048 0c0 0 0 0 0 0h-14.336c0 0 0 0 0 0h-4.096c0 0 0 0 0 0v0c0 0 0 0 0 0v0 0c0 0 0 0 0 0v0-6.144c0 0 0 0 0 0l-8.192-8.192c0 0 0-2.048 0-2.048l4.096-6.144v-2.048c0 0 0 0 0 0s2.048 0 4.096-2.048c0 0 0 0 0 0v-2.048c0 0 0 0 0 0l2.048-2.048c0 0 0 0 0 0h-2.048c0 0 0 0 0 0v-2.048c0 0 0 0 0 0v0-2.048c0 0 0 0-8.192 8.192v2.048c0 0 0 0-4.096 2.048v0c0 0 0 0-2.048 0h-2.048c-2.048 0-2.048 0-2.048-6.144 0 0 0 0 0 0v0 0 0 0c0 0 0 0 0 0s0 0 0 0 0 0-2.048-2.048c0 0 0 0 0-2.048v-2.048c0 0 0 0 0 0s0 0 0 0v-2.048c0 0 0 0 0-2.048 0 0 0 0 2.048 0h4.096l4.096 2.048c0 0 0 0 0 0v0 0c0 0 0 0 0 0s0 0 0 0v-2.048c0 0 0 0 0-2.048 0 0 0 0 2.048 0h-4.096v-2.048c0 0 0 0 0 0s0 0 0 0 0-2.048 0-2.048v0 0c0 0 2.048 0 2.048 0l4.096-2.048v-2.048c-2.048 0-2.048 0-8.192 0 0 0 0 0-2.048 0v0 0c0 0 0 0 0 0s0 0 0 0v0c0 0 0 0 0 0s0 0 0 0c0-2.048 0-4.096 0-6.144l-4.096-6.144c0 0 0 0 0 0s0 0 0 0 0 0 0 0v0l2.048-4.096c0 0 2.048-2.048 2.048-2.048h2.048v-2.048l-8.192-8.192-4.096-18.432-6.144-4.096h-4.096c-2.048-2.048-4.096-6.144-4.096-8.192s-2.048-2.048-2.048-4.096l-4.096-8.192c0 0 0-2.048 0-2.048v0 0-10.24l-4.096-8.192c0 0 0-2.048 0-2.048l2.048-2.048c0 0 0-2.048 0-2.048s0 0 0 0v0 0l4.096-4.096 4.096-6.144c0 0 0 0 0 0l4.096-4.096c0 0 0 0 0 0l6.144-4.096 2.048-2.048c0 0 2.048 0 4.096 0h18.432c0 0 0 0 0 0v0c0 0 0 0 0 0l2.048 2.048h6.144l2.048-4.096c0 0 0 0 2.048 0h4.096l2.048-4.096-4.096-8.192 4.096-8.192v-6.144l8.192-18.432-4.096-4.096-2.048-4.096c0 0 0 0 0 0s0 0 0 0c0-2.048-2.048-4.096-2.048-6.144v0c0 0 0 0 0 0v-4.096c-2.048-6.144-4.096-12.288-6.144-18.432v0l-2.048-4.096c0-2.048 0-2.048-2.048-4.096l-2.048-2.048c0 0-2.048-2.048-2.048-4.096v0c0 0 0 0 0-2.048v0c0 0 2.048 0 2.048 0s0 0 0 0 0 0 2.048 0 6.144 0 8.192 2.048l4.096 2.048 8.192 6.144c0 0 4.096 2.048 4.096 2.048l6.144 6.144c0 0 0 0 0 0s2.048 0 2.048 2.048l4.096 4.096 2.048 4.096 4.096-2.048c0 0 2.048 0 2.048 2.048v0c8.192 4.096 10.24 4.096 10.24 4.096v0c2.048 2.048 0 0 0 0zM159.744 310.784v0c0-2.048 0-2.048 4.096-4.096l-4.096-2.048c0 0 0 2.048 0 2.048l-4.096 4.096c0 0 2.048 0 4.096 0zM157.696 316.928l6.144 4.096c0 0 2.048 0 2.048 0l-2.048-2.048v-2.048h-6.144zM155.648 314.88l-2.048-2.048c-2.048 0-2.048 0-2.048-2.048h-2.048v2.048c0 0 0 0 0 0h6.144c2.048 4.096 0 4.096 0 2.048zM350.208 226.816l-6.144 2.048c0 0 0 0 0 0s-2.048 0-2.048 0v0 0c-2.048 0-4.096 0-4.096 0s0 0 0 0 0 0 0 0h-2.048v-2.048l-6.144 4.096-8.192 2.048c0 2.048 0 2.048 0 4.096 0 0 0 0 0-2.048 0 0 0 0 0 0s2.048 0 2.048 0 0 0 0 0c0 0 0 0 2.048 2.048 0 0 0 0 0 0v0 0c0 0 0 0 0 2.048v4.096c0 0 0 0 0 0l2.048 4.096c0 0 0 0 0 2.048v0 0 0c0 0 0 0 0 0s0 0 0 0v0l2.048-2.048c0 0 0 0 0 0s0-2.048 0-2.048v0 0 0h2.048c0 0 0 0 0 0s0 0 0-2.048c0 0 0 0 6.144-2.048 2.048 0 2.048 2.048 2.048 4.096v0c0 0 0 0 2.048 0h4.096c0 0 0 0 0 0v0c0 0 0-2.048 0-2.048s0 0 2.048-2.048v0c0 0 0 0 0 0v0c0 0 0-2.048 0-2.048v-6.144h-4.096c8.192-2.048 6.144-2.048 6.144-6.144v0zM354.304 91.648l-4.096-2.048 4.096 4.096c2.048 2.048 0 0 0-2.048zM360.448 99.84c0 0 0 0 0 0s0 0 0 0c-2.048 0-2.048 0-2.048 0s0 0-2.048 0v0c0 0 0 0 0 0s0 0 0 2.048v0 0 0l2.048 6.144v2.048l2.048 4.096c0 0 0 0 0 0 0 2.048 0 2.048 2.048 4.096l2.048 4.096v2.048c0 0 0 0 0 0l6.144 8.192h2.048c0 0 0 0 0 0l2.048 2.048c-2.048-8.192-8.192-22.528-14.336-34.816zM370.688 185.856c0 0 2.048-2.048 2.048-4.096v-4.096l-2.048 8.192zM380.928 169.472v0c-2.048-2.048-2.048-2.048-4.096-2.048v0l4.096 2.048c0 0 0 0 0 0zM970.752 265.728v-4.096 8.192c-2.048-2.048 0-4.096 0-4.096zM935.936 343.552v0 0c4.096 0 4.096 0 4.096 0v0c0 0 0 0 0 0s0 0 0 0l6.144-6.144h-2.048c-2.048 2.048-2.048 2.048-2.048 2.048v0c0 0-2.048 0-4.096-2.048 0 0-2.048 0-2.048 0v0l-2.048 2.048v4.096c2.048 0 2.048 0 2.048 0zM935.936 327.168v0c0 0 0 0 0 0l2.048-4.096c0 0-2.048 0-2.048 0v0 0 0c0 4.096 0 4.096 0 4.096zM913.408 331.264v0h-2.048c0 0 0 0-2.048 0 0 0 0 0 0-2.048 0 0 0 0 0-2.048v0c0-2.048 2.048-2.048 4.096-4.096 0 0 0 0 0 0s-2.048 0-2.048-2.048c0 0 0 2.048 0 2.048s0 0 0 0h-2.048l-2.048 2.048h-16.384c0 0 0 0 0 0l-10.24-4.096-4.096 2.048h4.096c0 0 0 0 0 0l2.048 2.048c0 0 0 0 2.048 2.048 0 0 0 0 0 2.048v4.096h2.048c0 0 0 0 0 0s0 0 0 0h2.048c0 0 0 0 0 0v2.048h4.096l2.048 2.048c0 0 0 0 0 0s0 0 0 0 0 0 0-2.048c0 0 0 0 0-2.048 0 0 0 0 0 0v0 0c0 0 0-2.048 0-4.096s2.048-2.048 2.048-2.048v0h2.048c0 0 2.048 0 2.048 2.048 0 0 0 0 0 4.096 0 0 0 0-2.048 2.048 0 0 0 0 0 2.048l2.048-2.048c0 0 0 0 0 0l12.288-4.096zM907.264 378.368v0-4.096c0 0-2.048 0-4.096 0v0l-2.048-2.048c0 0 0 0 0 0v10.24c0 0 0 0 0 0h2.048c2.048-2.048 2.048-2.048 4.096-4.096-2.048 0-2.048 0 0 0-2.048 0-2.048 0 0 0zM720.896 384.512v0l4.096 4.096c2.048 0 4.096 2.048 6.144 2.048l4.096 2.048c0 0 0 0 0 0v0h2.048c0 0 0-2.048 0-2.048s2.048 0 2.048 0v0 0c0 0-2.048-2.048-2.048-4.096 0 0 0-2.048-2.048-2.048h-4.096c0 0 0 0 0 0l-4.096-6.144-8.192-2.048c0 0 0 0 0 0s0 0 0 0l-2.048 4.096 4.096 4.096c0-2.048 0-2.048 0 0v0zM641.024 261.632v0c2.048-2.048 2.048-2.048 2.048 0h2.048l2.048-4.096v-2.048l4.096-4.096 4.096-12.288c0 0 0 0 0 0v0c0 0 0 0 2.048 0v0l2.048-2.048c0 0 0 0 0 0s0 0 0 0 0 0 0 0v-2.048c0 0 0 0 2.048 0h2.048c0 0 0 0 0 0v0c0-4.096 2.048-8.192 2.048-12.288v-10.24c0 0 0 0 0 0s0 0 0 0c0-2.048 0-2.048 0-4.096v0 0c0 0 0 0 0 0v0 0l4.096-6.144 6.144-4.096 4.096-4.096c0 0 0 0 0 0 4.096-6.144 10.24-14.336 12.288-14.336l8.192-4.096c0 0 2.048 0 4.096-2.048v0c4.096-4.096 8.192-12.288 12.288-16.384 8.192-10.24 10.24-14.336 22.528-24.576l4.096-2.048c0 0 0 0 2.048-2.048v0c0 0 2.048 0 2.048 0s0 0 2.048-2.048c0 0 0 0 2.048 0v-2.048c0 0 0 0 0 0h2.048c0 0 0 0 0 0s2.048 0 2.048-2.048c-61.44 4.096-112.64 65.536-114.688 139.264zM663.552 275.968v0c0 0 0 0 0 0 2.048-2.048 2.048-4.096 4.096-4.096 0 0 2.048 0 2.048 0 2.048 0 4.096 2.048 4.096 4.096 0 0 0 2.048 0 2.048v0 0-2.048c0 0 0-2.048 2.048-2.048v0c0 0 0 0-2.048-2.048 0 0 0 0 0-2.048 0 0 0 0 0-2.048 0 0 0 0 2.048-2.048v0c0 0 0 0 0 0s0 0 0 0v0h2.048c0 0 0 2.048 0 2.048v0c0 0 2.048 0 6.144-2.048 0 0 0 0 0 0s0 0 0 0h12.288c0 0 0 0 2.048 0h4.096c0 0 0 0 2.048 0v0c0 0 0 0 2.048 0v0 0c0 0 0-2.048 2.048-2.048v0c0 0 0-2.048 0-4.096v0c0 0 0-2.048 2.048-2.048v0 0c0 0 0-2.048 0-2.048s0 0 0-2.048c0 0 0 0 0-2.048 0 0 0 0 0-2.048 0 0 0-2.048 0-2.048v0c0 0 0-2.048 2.048-2.048v0l-4.096 2.048h-6.144c0 0 0 0 0 0v0 0l-6.144 2.048-4.096 4.096c0 0 0 0 0 0v0c0 0-2.048 0-2.048 0v0 0c0 0 0 0 0 0s0 0-2.048 0l-6.144-4.096c0 0 0 0 0 0s0 0 0 0l-6.144-6.144-2.048 2.048h-4.096l-2.048 2.048v12.288c0 0-2.048 2.048-2.048 4.096v0 0c0 0 0 0 0 0h-4.096v4.096l2.048 10.24c0 0 0 0 0 0v0c-2.048 2.048-2.048 2.048 0-2.048-2.048 2.048 0 2.048 0 0zM675.84 273.92h4.096c0 0 0-2.048 0-2.048v0c-2.048 0-4.096 2.048-4.096 2.048v0zM761.856 105.984v0c0 0 0 0 0 0s0 0 0 0zM942.080 165.376v0l-2.048-4.096-4.096-4.096c0 0 0 0-4.096-8.192 0 0 0-2.048 0-2.048s0 0 0 0c-30.72-30.72-73.728-49.152-118.784-49.152-8.192 0-18.432 0-26.624 2.048 0 0 0 0 0 0v0c0 0 0 0 0 0v0c0 0 0 0 0 2.048l-2.048 2.048c0 0 0 0-2.048 0v0 0 0c0 0 0-2.048 0-2.048s0 0 0 0h-2.048c0 0 0 0 0 0v0c0 0 0 0 0 0h-2.048l-2.048 2.048c0 0 0 0 0 0v2.048c-2.048 2.048-2.048 4.096-4.096 4.096 0 0 0 0 0 0v0c0 0 0 0 0 2.048 0 0 0 0 0 0l2.048 2.048c0 0 0 0 0 0v4.096c0 0 0 0 0 0v2.048c0 0 0 0 0 0v4.096c0 0 0 0 0 0v16.384c0 0 0 0 0 2.048l-4.096 8.192c4.096 2.048 8.192 4.096 10.24 6.144 0 0 0 0 0 0v2.048c0 4.096 0 8.192 2.048 10.24v0 8.192h2.048c0 0 0 0 0 0l2.048 4.096 4.096 4.096c0 0 0 0 0 0l-2.048 8.192c0 0 0 0 0 0-4.096 2.048-10.24 4.096-14.336 8.192 0 0 0 0 0 0l-10.24 4.096-4.096 2.048-4.096 4.096c0 0 0 0 0 0v0c0 0 0 0 0 2.048v0c0 0 0 0-2.048 0l-4.096 2.048-4.096 6.144c0 0 0 0 0 0l-8.192 4.096-2.048 2.048h-4.096l-6.144 4.096c0 0 0 0 0 2.048s0 2.048 0 2.048l2.048 2.048c0 0 0 2.048-2.048 2.048s-4.096 0-4.096 0c0 0 0 0 0 2.048 0 0 0 0 0 2.048 0 0 0 0 0 2.048 0 0 0 0 0 2.048 0 0 0 0 0 0s0 2.048 0 4.096v0c0 0 2.048 0 2.048 2.048 0 0 0 0 0 4.096 0 0 0 0-2.048 0 0 0 0 0 0 2.048 0 0 0 0-2.048 0v0c0 0 0 2.048-2.048 2.048s-4.096 0-4.096 0c0 0-2.048 0-2.048 0v0c0 0 0 0-2.048 0 0 0 0 0-2.048 2.048v4.096c0 0 0 0-2.048 0 0 0 0 0-2.048 0l-4.096 2.048h-4.096c0 0 2.048 0 2.048 2.048 0 0 0 0 0 4.096 0 0-2.048 2.048-2.048 0 0 0 0 0-2.048 0 0 0 0-2.048 0-2.048-2.048 0-4.096 2.048-4.096 4.096-2.048 2.048-4.096 4.096-6.144 4.096v0c0 0 0 0 0 0h-4.096c0 0 0 0 0 0s0 0-4.096-4.096c0 0 0 0 0 0v0l-6.144-2.048c0 0 0 0 0 0l-2.048-6.144h-2.048l-2.048 4.096 2.048 10.24 2.048 4.096 2.048 2.048c2.048 2.048 4.096 6.144 4.096 8.192h2.048l4.096-4.096c0 0 0 0 2.048 0s2.048 2.048 2.048 4.096l4.096-2.048v-12.288c0 0 0 0 0-2.048 2.048 0 2.048 0 2.048 0v0 0c0 0 0 0 0 0v-2.048c0 0 0 0 2.048-2.048h4.096c0 0 2.048 0 2.048 2.048 0 0 0 0 0 4.096 0 0 0 2.048-2.048 2.048h-2.048v4.096c0 4.096 2.048 6.144 2.048 8.192l4.096 6.144 4.096 4.096c2.048 2.048 4.096 4.096 8.192 4.096 0 0 0 0 0 0s0 0 0 0c0 2.048 0 4.096 0 4.096s2.048 0 2.048 0l6.144 6.144v2.048h6.144c0 0 0 0 0 0l2.048 2.048c0 0 0 0 0 2.048l2.048 2.048h2.048l4.096 2.048c0 0 0 0 0-2.048v0c0 0 0 0 2.048 0s6.144 2.048 8.192 4.096h4.096c0 0 0 0 0 0v0h2.048c0 0 0 0 2.048 2.048v0c0 0 0 2.048 0 2.048v2.048c0 0 0 0 0 2.048 0 0 0 0-2.048 0 0 0 0 0-6.144-4.096v2.048c0 0 0 0 0 2.048 0 0 0 0 0 0l2.048 2.048c0 0 0 0 0 2.048 0 0 0 0 0 0h6.144c0 0 0 0 0-2.048s0 0 0-2.048l2.048-2.048c0 0 0-2.048 0-2.048s0 0 4.096-2.048v0c0 0 0 0 2.048 0h2.048c0 0 0 0 0 0s0 0 0 0h-6.144c0 0 0 0 4.096 2.048v0c0 0 0 0 0 2.048s0 2.048 0 2.048v0c0 0 0 0 0 2.048 0 0 0 0-2.048 2.048l2.048 2.048c0 0 0 2.048 0 2.048s0 0 0 0l2.048 2.048c0 0 0 0 0 0h-2.048c0 0 0 2.048 0 4.096s0 2.048 0 2.048v0 0c0 4.096 0 6.144 0 6.144s0 2.048 0 2.048c0 0 0 0 2.048 2.048v0 0c0 0 0 0 4.096 4.096v0c0 0 0 0 8.192 4.096v0c0 0 0 0-4.096 4.096l2.048 2.048c0 0 0 0-2.048 6.144 0 0 0 0 0 0s0 0 2.048 2.048v0c2.048 0 4.096 2.048 4.096 2.048v0 0c0 0 0 0 0 0l4.096 4.096c0 0 0 0 0 0v0 0 0c2.048 0 2.048 0 4.096 0h2.048v-4.096c0 0 0 0 0 0v0c0 0 0 0 0 0v0c0 0 0 0 0 0h-2.048c0 0 0 0-4.096-2.048v0-4.096c0 0 0 0 0 0v0 0 0l2.048-6.144c0 0 0 0 0 0s0 0 0 0 0 0 0 0h2.048v-2.048c0 0 0 0 0 0s0 0 2.048 0h4.096c0 0 0 0 0 0l2.048 2.048c2.048 2.048 4.096 4.096 6.144 6.144l4.096 2.048c0 0 0 0 0 0s0 0 4.096 2.048l4.096 2.048v-2.048c0 0 0 0 0 0v0c2.048 2.048 6.144 4.096 10.24 4.096 0 0 0 0 2.048 0v0c0 0 0 2.048 0 2.048v0c0 0 0 0 0 0v0 4.096c0 0 0 0 0 2.048 0 0 0 2.048-2.048 4.096 0 0 0 0 0 0v0c0 0 0 0 2.048 0h2.048c0 0-2.048 2.048-4.096 2.048 0 0 0 0-2.048 0 0 0 0 0 0 0s0 0-2.048 0c0 0 0 0 0 0v0c0 0 0 2.048-2.048 2.048s-4.096 2.048-4.096 2.048c-2.048 0-4.096 0-8.192 0 0 0-2.048 0-2.048 0s-2.048 0-4.096 0 0 0-2.048 0c0 0 0 0-2.048 0s-4.096-2.048-4.096-4.096v0c0 0 0 0-2.048 0s-2.048 0-2.048 0 0 0 0 0 0 2.048-2.048 2.048v0c0 0 0 0-2.048 0 0 0 0 2.048-2.048 4.096v0c0 0-2.048 0-2.048 0s0 0 0-2.048c0 0 0 0 0 0s0 0 0 0 0 0-2.048-2.048c0 0 0 0-2.048 0v0c0 0-2.048-2.048-2.048-2.048s-2.048-2.048-2.048-2.048c0 0 0 0 0 0v2.048c0 0 0 2.048-2.048 2.048 0 0 0 0-2.048 0l-2.048-2.048c0 0 0 0 0 0l-2.048-2.048c0 0 0 0 0-2.048 0 0 0 0-2.048 0v0 4.096c0 0 0 0 0 2.048 0 0 0 0-2.048 0s0 0-4.096-2.048c0 0 0 0 0 0v-2.048c0 0 0 0 0 0v0c0 0 0 0-2.048 2.048v0c0 0 0 0-2.048 0 0 0-2.048 0-2.048 0v0c0 4.096 0 4.096-2.048 4.096h-4.096c0 0 0 0 0 0l-4.096-2.048c0 0 0 0-2.048-2.048 0 0 0 0 0 0h-2.048l-6.144-2.048-4.096-2.048c0 0 0 0 0 0s0-2.048 0-2.048c0 0 0 0 0 0v0c0 0 0 0 0 0s0 0 0 0 0 0-2.048 0v0c24.576 14.336 53.248 22.528 83.968 22.528 32.768 0 63.488-10.24 90.112-26.624 0 0 0 0 0 0s0 0 0 0 0 0 6.144-4.096v0c0 0 0 0 0 0v0c0 0-2.048 0-2.048 0v0c0 0-2.048 0-2.048 0s-2.048 0-2.048 0c0 0 0 0 0 0h-14.336c0 0 0 0 0 0v0c0 0 0 0 0 0v0c0 0 0 0 0 0v0 0c0 0 0 0 0 0v0-6.144c0 0 0 0 0 0l-4.096-6.144c0 0 0-2.048 0-2.048l4.096-6.144v-2.048c0 0 0 0 0 0s2.048 0 4.096-2.048c0 0 0 0 0 0v-2.048c0 0 0 0 0 0l2.048-2.048c0 0 0 0 0 0h-2.048c0 0 0 0 0 0v-2.048c0 0 0 0 0 0v0-2.048c0 0 0 0-8.192 8.192v2.048c0 0 0 0-4.096 2.048v0c0 0 0 0-2.048 0h-2.048c-2.048 0-2.048 0-2.048-6.144 0 0 0 0 0 0v0 0 0 0c0 0 0 0 0 0s0 0 0 0 0 0-2.048-2.048c0 0 0 0 0-2.048v-2.048c0 0 0 0 0 0s0 0 0 0v-2.048c0 0 0 0 0-2.048 0 0 0 0 2.048 0h4.096l4.096 2.048c0 0 0 0 0 0v0 0c0 0 0 0 0 0s0 0 0 0v-2.048c0 0 0 0 0-2.048 0 0 0 0 2.048 0h-4.096v-2.048c0 0 0 0 0 0s0 0 0 0 0-2.048 0-2.048v0 0c0 0 2.048 0 2.048 0l4.096-2.048v-2.048c-2.048 0-2.048 0-8.192 0 0 0 0 0-2.048 0v0 0c0 0 0 0 0 0s0 0 0 0v0c0 0 0 0 0 0s0 0 0 0c0-2.048 0-4.096 0-6.144l-8.192-14.336c0 0 0 0 0 0s0 0 0 0 0 0 0 0v0l2.048-4.096c0 0 2.048-2.048 2.048-2.048h2.048v-2.048l-6.144-10.24-4.096-8.192-6.144-4.096h-4.096c-2.048-2.048-4.096-6.144-4.096-8.192s-2.048-2.048-2.048-4.096l-4.096-8.192c0 0 0-2.048 0-2.048v0 0-10.24l-4.096-8.192c0 0 0-2.048 0-2.048l2.048-2.048c0 0 0-2.048 0-2.048s0 0 0 0v0 0l4.096-4.096 4.096-6.144c0 0 0 0 0 0l4.096-4.096c0 0 0 0 0 0l6.144-4.096 2.048-2.048c0 0 2.048 0 4.096 0h18.432c0 0 0 0 0 0v0c0 0 0 0 0 0l2.048 2.048h6.144l2.048-4.096c0 0 0 0 2.048 0h4.096l2.048-4.096-4.096-8.192 4.096-8.192v-10.24l-2.048-10.24 8.192-6.144-2.048-4.096c0 0 0 0 0 0s0 0 0 0c0-2.048-2.048-4.096-2.048-6.144v0c0 0 0 0 0 0v-4.096c-2.048-6.144-4.096-12.288-6.144-18.432v0l-2.048-4.096c0-2.048 0-2.048-2.048-4.096l-2.048-2.048c0 0-2.048-2.048-2.048-4.096v0c0 0 0 0 0-2.048v0c0 0 2.048 0 2.048 0s0 0 0 0 0 0 2.048 0 6.144 0 8.192 2.048l4.096 2.048 8.192 6.144c0 0 4.096 2.048 4.096 2.048l6.144 6.144c0 0 0 0 0 0s2.048 0 2.048 2.048l4.096 4.096 2.048 4.096 4.096-2.048c0 0 2.048 0 2.048 2.048v0c6.144 2.048 8.192 4.096 10.24 2.048v0c0 2.048 0 2.048 0 0zM755.712 392.704v0c0-2.048 0-2.048 4.096-4.096l-4.096-2.048c0 0 0 2.048 0 2.048l-4.096 4.096c2.048 0 2.048 0 4.096 0zM755.712 398.848l4.096 4.096c0 0 2.048 0 2.048 0l-2.048-2.048v-2.048h-4.096zM753.664 398.848l-2.048-2.048c-2.048 0-2.048 0-2.048-2.048h-2.048v2.048c0 0 0 0 0 0h6.144c0 2.048 0 2.048 0 2.048zM946.176 310.784l-6.144 2.048c0 0 0 0 0 0s-2.048 0-2.048 0v0 0c-2.048 0-4.096 0-4.096 0s0 0 0 0 0 0 0 0h-2.048v-2.048l-6.144 4.096-8.192 2.048c0 2.048 0 2.048 0 4.096 0 0 0 0 0-2.048 0 0 0 0 0 0s2.048 0 2.048 0 0 0 0 0c0 0 0 0 2.048 2.048 0 0 0 0 0 0v0 0c0 0 0 0 0 2.048v2.048c0 0 0 0 0 0l2.048 4.096c0 0 0 0 0 2.048v0 0 0c0 0 0 0 0 0s0 0 0 0v0l2.048-2.048c0 0 0 0 0 0s0-2.048 0-2.048v0 0 0h2.048c0 0 0 0 0 0s0 0 0-2.048c0 0 0 0 6.144-2.048 2.048 0 2.048 2.048 2.048 4.096v0c0 0 0 0 2.048 0h4.096c0 0 0 0 0 0v0c0 0 0-2.048 0-2.048s0 0 2.048-2.048v0c0 0 0 0 0 0v0c0 0 0-2.048 0-2.048v-6.144h-4.096c8.192-2.048 8.192-2.048 6.144-4.096v0zM950.272 175.616l-4.096-2.048 4.096 4.096c2.048 0 2.048-2.048 0-2.048zM956.416 183.808c0 0 0 0 0 0s0 0 0 0c-2.048 0-2.048 0-2.048 0s0 0-2.048 0v0c0 0 0 0 0 0s0 0 0 2.048v0 0 0l2.048 6.144v2.048l2.048 4.096c0 0 0 0 0 0 0 2.048 0 2.048 2.048 4.096l2.048 4.096v2.048c0 0 0 0 0 0l6.144 8.192h2.048c0 0 0 0 0 0l2.048 2.048c-2.048-10.24-8.192-22.528-14.336-34.816zM976.896 251.392c0 0-2.048 0-2.048-2.048v0l2.048 2.048c2.048 0 2.048 0 0 0v0z" />
<glyph unicode="&#xe902;" glyph-name="agenda" d="M503.808 568.832c-8.192 0-16.384-2.048-22.528-6.144-8.192-4.096-14.336-12.288-22.528-20.48-8.192-10.24-14.336-22.528-18.432-36.864s-6.144-28.672-6.144-40.96c0-18.432 4.096-32.768 12.288-43.008 14.336-16.384 30.72-18.432 51.2-8.192 8.192 4.096 16.384 12.288 24.576 20.48s14.336 20.48 20.48 34.816c6.144 14.336 8.192 28.672 8.192 43.008 0 18.432-4.096 32.768-14.336 43.008s-20.48 14.336-32.768 14.336zM124.928 673.28c-43.008 8.192-61.44 75.776-26.624 75.776 36.864 0 65.536 0 65.536 0 24.576 0 45.056 12.288 45.056 36.864s-20.48 36.864-45.056 36.864h-69.632c-24.576 4.096-73.728-10.24-73.728-71.68 0-63.488 49.152-77.824 104.448-77.824zM124.928 484.864c-43.008 8.192-61.44 75.776-26.624 75.776 36.864 0 65.536 0 65.536 0 24.576 0 45.056 12.288 45.056 36.864s-20.48 36.864-45.056 36.864h-69.632c-24.576 0-73.728-14.336-73.728-75.776 0-59.392 49.152-73.728 104.448-73.728zM124.928 296.448c-43.008 8.192-61.44 75.776-26.624 75.776 36.864 0 65.536 0 65.536 0 24.576 0 45.056 12.288 45.056 36.864s-20.48 36.864-45.056 36.864h-69.632c-24.576 2.048-73.728-12.288-73.728-73.728 0-63.488 49.152-75.776 104.448-75.776zM124.928 105.984c-43.008 8.192-61.44 75.776-26.624 75.776 36.864 0 65.536 0 65.536 0 24.576 0 45.056 12.288 45.056 36.864s-20.48 36.864-45.056 36.864h-69.632c-24.576 0-73.728-14.336-73.728-75.776 0-59.392 49.152-73.728 104.448-73.728zM851.968 863.744h-6.144c-16.384 45.056-57.344 75.776-106.496 75.776h-454.656c-49.152 0-92.16-32.768-106.496-77.824 40.96-4.096 67.584-32.768 67.584-73.728s-30.72-71.68-73.728-75.776v-38.912c43.008-4.096 73.728-32.768 73.728-75.776 0-40.96-30.72-71.68-73.728-75.776v-38.912c43.008-4.096 73.728-32.768 73.728-75.776s-30.72-71.68-73.728-75.776v-38.912c43.008-4.096 73.728-32.768 73.728-75.776s-30.72-71.68-73.728-75.776v-38.912c0-75.776 75.776-151.552 151.552-151.552h528.384c63.488 0 112.64 51.2 112.64 112.64v688.128c2.048 61.44-49.152 112.64-112.64 112.64zM311.296 579.072c18.432 40.96 47.104 73.728 81.92 96.256s77.824 32.768 129.024 32.768c38.912 0 73.728-8.192 104.448-24.576s57.344-38.912 73.728-71.68c16.384-26.624 22.528-57.344 22.528-88.064 0-45.056-16.384-86.016-49.152-120.832-28.672-32.768-61.44-47.104-96.256-47.104-12.288 0-20.48 2.048-28.672 6.144s-14.336 10.24-18.432 16.384c0 2.048-2.048 4.096-2.048 6.144-8.192-6.144-16.384-12.288-24.576-16.384-28.672-16.384-57.344-14.336-83.968 2.048-14.336 8.192-24.576 22.528-34.816 38.912-8.192 16.384-12.288 36.864-12.288 57.344 0 24.576 6.144 51.2 20.48 75.776 12.288 24.576 28.672 45.056 49.152 57.344 34.816 22.528 69.632 24.576 100.352 8.192 8.192-4.096 16.384-10.24 22.528-18.432l4.096 16.384c0 4.096 4.096 6.144 8.192 6.144h40.96c2.048 0 4.096-2.048 6.144-2.048 2.048-2.048 2.048-4.096 2.048-6.144l-32.768-151.552c-6.144-26.624-6.144-32.768-6.144-32.768 0-2.048 0-2.048 2.048-4.096s4.096-2.048 6.144-2.048 12.288 2.048 26.624 12.288c16.384 10.24 28.672 26.624 38.912 45.056s14.336 38.912 14.336 59.392c0 22.528-6.144 45.056-18.432 65.536s-30.72 36.864-55.296 49.152c-24.576 12.288-51.2 18.432-81.92 18.432-34.816 0-65.536-8.192-94.208-24.576s-49.152-38.912-65.536-67.584c-16.384-28.672-22.528-61.44-22.528-94.208 0-34.816 8.192-65.536 22.528-90.112s36.864-43.008 65.536-55.296c28.672-12.288 63.488-18.432 98.304-18.432 38.912 0 71.68 6.144 96.256 18.432s45.056 28.672 57.344 45.056c2.048 2.048 4.096 4.096 6.144 4.096h40.96c2.048 0 6.144-2.048 6.144-4.096 2.048-2.048 2.048-6.144 0-8.192-8.192-16.384-22.528-32.768-40.96-51.2-20.48-16.384-43.008-30.72-69.632-40.96s-59.392-14.336-96.256-14.336c-34.816 0-67.584 4.096-96.256 12.288s-55.296 22.528-75.776 40.96c-20.48 18.432-36.864 38.912-47.104 61.44-12.288 28.672-20.48 61.44-20.48 94.208 4.096 38.912 10.24 75.776 26.624 108.544zM890.88 69.12c0-20.48-16.384-36.864-36.864-36.864h-520.192c-28.672 0-45.056 22.528-47.104 36.864h452.608c63.488 0 112.64 51.2 112.64 112.64v606.208c20.48 0 36.864-16.384 36.864-36.864v-681.984z" />
<glyph unicode="&#xe903;" glyph-name="album" d="M978.944 644.608c-6.144 10.24-16.384 16.384-28.672 18.432-30.72 4.096-43.008 10.24-51.2 16.384-6.144 4.096-14.336 8.192-22.528 10.24l49.152 112.64c6.144 14.336 2.048 30.72-8.192 40.96-12.288 10.24-28.672 12.288-43.008 4.096-194.56-106.496-522.24-77.824-526.336-77.824-14.336 2.048-28.672-6.144-34.816-18.432l-268.288-516.096c0 0 0-2.048 0-4.096-2.048-2.048-2.048-6.144-4.096-8.192 0-2.048 0-4.096 0-6.144s0-2.048 0-4.096c0-4.096 2.048-6.144 2.048-10.24 0 0 0 0 0 0s0 0 0 0c32.768-141.312 366.592-161.792 555.008-161.792 34.816 0 65.536 0 86.016 2.048 14.336 0 26.624 8.192 30.72 20.48l264.192 548.864c6.144 10.24 6.144 22.528 0 32.768zM366.592 695.808c71.68-4.096 280.576-10.24 454.656 51.2l-208.896-481.28c-40.96-63.488-327.68-45.056-481.28-22.528l235.52 452.608zM659.456 116.224c-178.176-4.096-364.544 12.288-466.944 47.104 59.392-8.192 135.168-14.336 206.848-14.336 120.832 0 239.616 18.432 274.432 81.92 0 2.048 2.048 2.048 2.048 4.096l163.84 376.832c8.192-2.048 16.384-2.048 24.576 2.048 6.144-4.096 14.336-8.192 26.624-12.288l-231.424-485.376zM561.152 341.504l24.576 47.104c10.24 43.008 4.096 61.44-26.624 61.44-16.384 0-47.104 2.048-43.008 20.48s4.096 20.48 14.336 28.672c10.24 8.192 22.528 16.384 36.864 59.392 18.432 63.488-10.24 96.256-59.392 94.208-55.296-2.048-69.632-51.2-79.872-83.968-6.144-20.48 2.048-49.152 12.288-57.344 6.144-6.144 0-14.336-6.144-28.672-6.144-20.48-38.912-20.48-53.248-26.624-38.912-18.432-43.008-24.576-61.44-67.584-16.384-36.864-47.104-106.496-47.104-106.496 63.488-8.192 208.896-28.672 288.768 59.392z" />
<glyph unicode="&#xe904;" glyph-name="album-add" d="M546.816 466.432c-100.352-100.352-100.352-262.144 0-362.496s262.144-100.352 362.496 0c100.352 100.352 100.352 262.144 0 362.496s-262.144 98.304-362.496 0zM870.4 304.64v-38.912c0-8.192-6.144-12.288-12.288-12.288h-98.304v-98.304c0-8.192-6.144-12.288-12.288-12.288h-38.912c-8.192 0-12.288 6.144-12.288 12.288v98.304h-98.304c-8.192 0-12.288 6.144-12.288 12.288v38.912c0 8.192 6.144 12.288 12.288 12.288h98.304v98.304c0 8.192 6.144 12.288 12.288 12.288h38.912c8.192 0 12.288-6.144 12.288-12.288v-98.304h98.304c6.144 0 12.288-6.144 12.288-12.288zM186.368 202.24c61.44-6.144 137.216-14.336 208.896-14.336 10.24 0 20.48 0 32.768 0-6.144 22.528-12.288 45.056-12.288 69.632-6.144 0-12.288 0-18.432 0-98.304 0-206.848 12.288-266.24 22.528l225.28 434.176c18.432-2.048 47.104-2.048 81.92-2.048 102.4 0 239.616 10.24 356.352 51.2l-71.68-163.84c2.048 0 4.096 0 6.144 0 22.528 0 45.056-2.048 67.584-8.192l18.432 43.008c8.192-2.048 16.384-2.048 22.528 2.048 6.144-4.096 14.336-8.192 26.624-12.288l-24.576-45.056c22.528-8.192 43.008-18.432 61.44-32.768l43.008 88.064c4.096 10.24 4.096 22.528 0 32.768s-16.384 16.384-26.624 18.432c-28.672 4.096-40.96 10.24-49.152 16.384-6.144 4.096-14.336 8.192-22.528 10.24l47.104 108.544c6.144 14.336 2.048 30.72-8.192 38.912-10.24 10.24-26.624 12.288-40.96 4.096-124.928-69.632-309.248-79.872-407.552-79.872-59.392 0-98.304 4.096-98.304 4.096-14.336 2.048-26.624-6.144-34.816-18.432l-258.048-499.712c0 0 0-2.048 0-2.048-2.048-4.096-2.048-6.144-4.096-8.192 0-2.048 0-4.096 0-6.144s0-2.048 0-4.096c16.384-122.88 256-155.648 440.32-161.792-18.432 22.528-32.768 47.104-45.056 73.728-100.352 6.144-190.464 20.48-249.856 40.96zM509.952 525.824c10.24 8.192 22.528 14.336 34.816 57.344 18.432 61.44-8.192 92.16-57.344 90.112-53.248-2.048-65.536-49.152-75.776-81.92-6.144-20.48 2.048-47.104 12.288-55.296 6.144-6.144 0-12.288-4.096-26.624-6.144-20.48-36.864-18.432-51.2-26.624-36.864-18.432-40.96-22.528-59.392-65.536-16.384-36.864-45.056-102.4-45.056-102.4 34.816-4.096 94.208-10.24 151.552-2.048 6.144 71.68 36.864 135.168 81.92 186.368 0 0 0 0 0 0 2.048 16.384 2.048 18.432 12.288 26.624z" />
<glyph unicode="&#xe905;" glyph-name="album-delete" d="M727.040 540.16c-141.312 0-256-114.688-256-256s114.688-256 256-256c141.312 0 256 114.688 256 256s-114.688 256-256 256zM841.728 196.096l-28.672-28.672c-4.096-4.096-14.336-4.096-18.432 0l-69.632 69.632-69.632-69.632c-4.096-4.096-14.336-4.096-18.432 0l-28.672 26.624c-4.096 4.096-4.096 14.336 0 18.432l69.632 69.632-69.632 69.632c-4.096 4.096-4.096 14.336 0 18.432l28.672 28.672c4.096 6.144 14.336 6.144 18.432 0l69.632-69.632 69.632 69.632c4.096 6.144 14.336 6.144 18.432 0l28.672-28.672c4.096-4.096 4.096-14.336 0-18.432l-67.584-67.584 69.632-69.632c4.096-4.096 4.096-12.288-2.048-18.432zM186.368 202.24c61.44-6.144 137.216-14.336 208.896-14.336 10.24 0 20.48 0 32.768 0-6.144 22.528-12.288 45.056-12.288 69.632-6.144 0-12.288 0-18.432 0-98.304 0-206.848 12.288-266.24 22.528l225.28 434.176c18.432-2.048 47.104-2.048 81.92-2.048 102.4 0 239.616 10.24 356.352 51.2l-71.68-163.84c2.048 0 4.096 0 6.144 0 22.528 0 45.056-2.048 67.584-8.192l18.432 43.008c8.192-2.048 16.384-2.048 22.528 2.048 6.144-4.096 14.336-8.192 26.624-12.288l-24.576-45.056c22.528-8.192 43.008-18.432 61.44-32.768l43.008 88.064c4.096 10.24 4.096 22.528 0 32.768s-16.384 16.384-26.624 18.432c-28.672 4.096-40.96 10.24-49.152 16.384-6.144 4.096-14.336 8.192-22.528 10.24l47.104 108.544c6.144 14.336 2.048 30.72-8.192 38.912-10.24 10.24-26.624 12.288-40.96 4.096-124.928-69.632-309.248-79.872-407.552-79.872-59.392 0-98.304 4.096-98.304 4.096-14.336 2.048-26.624-6.144-34.816-18.432l-258.048-499.712c0 0 0-2.048 0-2.048-2.048-4.096-2.048-6.144-4.096-8.192 0-2.048 0-4.096 0-6.144s0-2.048 0-4.096c16.384-122.88 256-155.648 440.32-161.792-18.432 22.528-32.768 47.104-45.056 73.728-100.352 6.144-190.464 20.48-249.856 40.96zM509.952 525.824c10.24 8.192 22.528 14.336 34.816 57.344 18.432 61.44-8.192 92.16-57.344 90.112-53.248-2.048-65.536-49.152-75.776-81.92-6.144-20.48 2.048-47.104 12.288-55.296 6.144-6.144 0-12.288-4.096-26.624-6.144-20.48-36.864-18.432-51.2-26.624-36.864-18.432-40.96-22.528-59.392-65.536-16.384-36.864-45.056-102.4-45.056-102.4 34.816-4.096 94.208-10.24 151.552-2.048 6.144 71.68 36.864 135.168 81.92 186.368 0 0 0 0 0 0 2.048 16.384 2.048 18.432 12.288 26.624z" />
<glyph unicode="&#xe906;" glyph-name="album-rename" d="M391.168 712.192c-2.048 8.192-6.144 14.336-10.24 18.432s-12.288 6.144-24.576 6.144h-110.592c-12.288 0-20.48-2.048-24.576-6.144s-8.192-10.24-10.24-18.432l-167.936-532.48c-2.048-10.24-2.048-16.384 0-18.432s6.144-4.096 12.288-4.096h96.256c8.192 0 14.336 2.048 18.432 6.144 6.144 2.048 10.24 8.192 14.336 18.432l32.768 108.544h172.032l28.672-106.496c2.048-10.24 6.144-16.384 10.24-20.48s10.24-6.144 20.48-6.144h108.544c6.144 0 10.24 2.048 12.288 6.144s0 8.192 0 16.384l-178.176 532.48zM243.712 394.752l55.296 204.8h4.096l53.248-204.8h-112.64zM948.224 126.464l-67.584 2.048c-38.912 0-71.68 32.768-71.68 71.68v497.664c0 38.912 32.768 71.68 71.68 71.68h65.536v79.872h-65.536c-43.008 0-81.92-20.48-110.592-51.2-26.624 30.72-65.536 51.2-110.592 51.2h-69.632v-77.824c0 0 0 0 0 0h69.632c38.912 0 71.68-32.768 71.68-71.68v-499.712c0-38.912-32.768-71.68-71.68-71.68l-69.632-2.048v-77.824c0 0 0 0 0 0h67.584c45.056 0 83.968 20.48 112.64 51.2 26.624-30.72 67.584-51.2 112.64-51.2h63.488v77.824z" />
<glyph unicode="&#xe907;" glyph-name="alert" d="M976.896 177.664l-380.928 659.456c-47.104 79.872-122.88 79.872-169.984 0l-378.88-659.456c-47.104-79.872-8.192-145.408 83.968-145.408h759.808c94.208 0 133.12 65.536 86.016 145.408zM460.8 650.752c14.336 14.336 30.72 22.528 51.2 22.528s38.912-8.192 51.2-22.528c14.336-14.336 20.48-32.768 20.48-55.296 0-18.432-28.672-157.696-36.864-258.048h-67.584c-8.192 100.352-38.912 239.616-38.912 258.048 0 22.528 6.144 38.912 20.48 55.296zM563.2 169.472c-14.336-14.336-30.72-20.48-51.2-20.48s-36.864 6.144-51.2 20.48c-14.336 14.336-20.48 30.72-20.48 51.2s6.144 36.864 20.48 51.2c14.336 14.336 30.72 20.48 51.2 20.48s36.864-6.144 51.2-20.48c14.336-14.336 20.48-30.72 20.48-51.2s-6.144-36.864-20.48-51.2z" />
<glyph unicode="&#xe908;" glyph-name="announce" d="M966.656 863.744c-20.48 0-36.864-16.384-36.864-36.864v-30.72l-833.536-247.808v12.288c0 20.48-16.384 36.864-36.864 36.864s-38.912-14.336-38.912-36.864v-188.416c0-20.48 16.384-36.864 36.864-36.864s36.864 16.384 36.864 36.864v10.24l831.488-280.576v-30.72c0-20.48 16.384-36.864 36.864-36.864s36.864 16.384 36.864 36.864v755.712c4.096 20.48-12.288 36.864-32.768 36.864zM890.88 599.552l-757.76-114.688v18.432l755.712 208.896v-112.64zM516.096 218.624c-12.288 4.096-24.576-2.048-28.672-14.336l-8.192-22.528c-4.096-14.336-14.336-24.576-28.672-32.768-12.288-6.144-28.672-8.192-43.008-2.048l-94.208 30.72c-28.672 10.24-45.056 40.96-34.816 69.632l8.192 24.576c4.096 12.288-2.048 24.576-14.336 28.672s-24.576-2.048-28.672-14.336l-8.192-24.576c-18.432-53.248 10.24-110.592 63.488-126.976l94.208-30.72c10.24-4.096 20.48-6.144 32.768-6.144 16.384 0 30.72 4.096 45.056 10.24 24.576 12.288 43.008 32.768 51.2 57.344l8.192 24.576c4.096 12.288-2.048 24.576-14.336 28.672z" />
<glyph unicode="&#xe909;" glyph-name="arrow-back" d="M512 939.52c-272.384 0-491.52-219.136-491.52-491.52s219.136-491.52 491.52-491.52 491.52 219.136 491.52 491.52c0 272.384-219.136 491.52-491.52 491.52zM512 28.16c-231.424 0-419.84 188.416-419.84 419.84s188.416 419.84 419.84 419.84 419.84-188.416 419.84-419.84c0-231.424-188.416-419.84-419.84-419.84zM561.152 667.136h-114.688l-219.136-219.136 219.136-219.136h114.688l-159.744 159.744h370.688v118.784h-370.688z" />
<glyph unicode="&#xe90a;" glyph-name="arrow-down" d="M866.304 448h-165.888v303.104c0 63.488-51.2 112.64-112.64 112.64h-151.552c-63.488 0-112.64-51.2-112.64-112.64v-303.104h-163.84c-59.392 0-71.68-10.24-20.48-61.44l280.576-280.576c94.208-94.208 92.16-94.208 186.368 0l280.576 280.576c53.248 51.2 34.816 61.44-20.48 61.44z" />
<glyph unicode="&#xe90b;" glyph-name="arrow-forward" d="M512 939.52c272.384 0 491.52-219.136 491.52-491.52s-219.136-491.52-491.52-491.52-491.52 219.136-491.52 491.52c0 272.384 219.136 491.52 491.52 491.52zM512 28.16c231.424 0 419.84 188.416 419.84 419.84s-188.416 419.84-419.84 419.84-419.84-188.416-419.84-419.84c0-231.424 188.416-419.84 419.84-419.84zM462.848 667.136h114.688l219.136-219.136-219.136-219.136h-114.688l159.744 159.744h-370.688v118.784h370.688z" />
<glyph unicode="&#xe90c;" glyph-name="arrow-left" d="M512 93.696v165.888h303.104c63.488 0 112.64 51.2 112.64 112.64v151.552c0 63.488-51.2 112.64-112.64 112.64h-303.104v163.84c0 59.392-10.24 71.68-61.44 20.48l-282.624-278.528c-94.208-94.208-94.208-92.16 0-186.368l280.576-280.576c51.2-53.248 63.488-36.864 63.488 18.432z" />
<glyph unicode="&#xe90d;" glyph-name="arrow-right" d="M512 804.352v-165.888h-301.056c-63.488 0-112.64-51.2-112.64-112.64v-151.552c0-63.488 51.2-112.64 112.64-112.64h301.056v-163.84c0-59.392 10.24-71.68 61.44-20.48l280.576 280.576c94.208 94.208 94.208 92.16 0 186.368l-278.528 280.576c-51.2 51.2-63.488 34.816-63.488-20.48z" />
<glyph unicode="&#xe90e;" glyph-name="arrow-up" d="M157.696 450.048h165.888v-303.104c0-63.488 51.2-112.64 112.64-112.64h151.552c63.488 0 112.64 51.2 112.64 112.64v303.104h163.84c59.392 0 71.68 10.24 20.48 61.44l-280.576 282.624c-94.208 94.208-92.16 94.208-186.368 0l-280.576-282.624c-53.248-51.2-34.816-61.44 20.48-61.44z" />
<glyph unicode="&#xe90f;" glyph-name="asana" d="M716.8 673.28c0-113.108-91.692-204.8-204.8-204.8s-204.8 91.692-204.8 204.8c0 113.108 91.692 204.8 204.8 204.8s204.8-91.692 204.8-204.8zM471.040 222.72c0-113.108-91.692-204.8-204.8-204.8s-204.8 91.692-204.8 204.8c0 113.108 91.692 204.8 204.8 204.8s204.8-91.692 204.8-204.8zM962.56 222.72c0-113.108-91.692-204.8-204.8-204.8s-204.8 91.692-204.8 204.8c0 113.108 91.692 204.8 204.8 204.8s204.8-91.692 204.8-204.8z" />
<glyph unicode="&#xe910;" glyph-name="auction" d="M845.824 577.024c10.24-10.24 10.24-24.576 0-34.816l-153.6-153.6c-10.24-10.24-24.576-10.24-34.816 0l-204.8 204.8c-10.24 10.24-10.24 24.576 0 34.816l153.6 153.6c10.24 10.24 24.576 10.24 34.816 0l204.8-204.8zM575.488 439.808c10.24-10.24 10.24-24.576 0-34.816l-411.648-440.32c-8.192-10.24-24.576-10.24-32.768 0l-102.4 102.4c-10.24 10.24-8.192 24.576 0 32.768l440.32 411.648c10.24 8.192 24.576 8.192 34.816 0l71.68-71.68zM589.824 900.608c28.672-28.672 28.672-73.728 0-102.4l-153.6-153.6c-28.672-28.672-73.728-28.672-102.4 0l-16.384 16.384c-28.672 28.672-28.672 73.728 0 102.4l153.6 155.648c28.672 28.672 73.728 28.672 102.4 0l16.384-18.432zM983.040 509.44c28.672-28.672 28.672-73.728 0-102.4l-153.6-153.6c-28.672-28.672-73.728-28.672-102.4 0l-16.384 16.384c-28.672 28.672-28.672 73.728 0 102.4l153.6 153.6c28.672 28.672 73.728 28.672 102.4 0l16.384-16.384z" />
<glyph unicode="&#xe911;" glyph-name="bed" d="M57.344 108.032h63.488v153.6h772.096v-159.744h73.728v466.944h-69.632v-184.32h-772.096v403.456h-67.584v-679.936zM305.152 437.76l555.008-2.048c-2.048 22.528-4.096 38.912-12.288 59.392-8.192 18.432-18.432 34.816-32.768 45.056-12.288 12.288-30.72 16.384-45.056 18.432-30.72 4.096-63.488 8.192-94.208 10.24-63.488 4.096-126.976 4.096-192.512 2.048-32.768-2.048-63.488-4.096-96.256-8.192-24.576-4.096-49.152-20.48-63.488-49.152-6.144-12.288-12.288-26.624-16.384-43.008 0-12.288-2.048-22.528-2.048-32.768v0zM215.040 425.472c24.576 0 49.152 12.288 63.488 32.768s16.384 47.104 6.144 71.68c-14.336 32.768-49.152 53.248-83.968 45.056-24.576-4.096-45.056-22.528-55.296-45.056s-6.144-49.152 6.144-69.632c14.336-22.528 36.864-34.816 63.488-34.816v0z" />
<glyph unicode="&#xe912;" glyph-name="binoculars" d="M153.6 329.216c0 2.048 0 4.096 0 6.144-10.24-14.336-14.336-32.768-14.336-51.2 0-55.296 43.008-98.304 98.304-98.304 20.48 0 40.96 6.144 57.344 18.432-4.096 0-8.192 0-12.288 0-71.68-2.048-129.024 55.296-129.024 124.928zM720.896 329.216c0 2.048 0 4.096 0 6.144-10.24-14.336-14.336-32.768-14.336-51.2 0-55.296 43.008-98.304 98.304-98.304 20.48 0 40.96 6.144 57.344 18.432-4.096 0-8.192 0-12.288 0-71.68-2.048-129.024 55.296-129.024 124.928zM976.896 361.984c2.048 0 2.048-2.048 0 0l-104.448 268.288c-14.336 47.104-59.392 83.968-102.4 83.968h-2.048c0 59.392-47.104 106.496-106.496 106.496-28.672 0-55.296-12.288-73.728-30.72h-153.6c-18.432 18.432-45.056 30.72-73.728 30.72-59.392 0-106.496-47.104-106.496-106.496h-2.048c-43.008 0-88.064-36.864-102.4-83.968l-104.448-270.336c0 0 0 0 0 2.048-12.288-24.576-18.432-53.248-18.432-83.968 0-110.592 90.112-200.704 200.704-200.704s200.704 90.112 200.704 200.704c0 10.24-2.048 22.528-4.096 32.768 18.432-26.624 51.2-45.056 86.016-45.056s67.584 18.432 86.016 45.056c-2.048-10.24-4.096-20.48-4.096-32.768 0-110.592 90.112-200.704 200.704-200.704s200.704 90.112 200.704 200.704c4.096 30.72-4.096 57.344-16.384 83.968zM229.376 146.944c-71.68 0-131.072 59.392-131.072 131.072s59.392 131.072 131.072 131.072c71.68 0 131.072-59.392 131.072-131.072 0-73.728-59.392-131.072-131.072-131.072zM403.456 374.272c0 0 2.048-2.048 2.048-2.048s0 0 0-2.048c0 2.048-2.048 2.048-2.048 4.096zM512 304.64c-36.864 0-67.584 30.72-67.584 67.584s30.72 67.584 67.584 67.584 67.584-30.72 67.584-67.584c0-36.864-30.72-67.584-67.584-67.584zM794.624 146.944c-71.68 0-131.072 59.392-131.072 131.072s59.392 131.072 131.072 131.072c71.68 0 131.072-59.392 131.072-131.072 2.048-73.728-57.344-131.072-131.072-131.072z" />
<glyph unicode="&#xe913;" glyph-name="book" d="M972.8 613.888c-18.432 8.192-40.96-2.048-49.152-20.48-18.432-43.008-14.336-83.968-8.192-106.496l-339.968-409.6-428.032 124.928c-10.24 6.144-51.2 30.72-51.2 94.208 0 20.48 4.096 47.104 18.432 61.44 12.288 8.192 28.672 8.192 38.912 8.192l393.216-112.64c4.096 0 6.144-2.048 10.24-2.048 12.288 0 22.528 6.144 30.72 14.336l401.408 462.848c8.192 10.24 12.288 24.576 6.144 38.912-4.096 12.288-16.384 22.528-28.672 26.624l-468.992 104.448c-14.336 2.048-28.672-2.048-38.912-12.288l-391.168-436.224c-8.192-10.24-32.768-49.152-40.96-100.352 0 0 0 0 0 0-4.096-16.384-6.144-32.768-6.144-53.248 0-120.832 94.208-163.84 98.304-163.84 2.048 0 2.048-2.048 4.096-2.048l454.656-135.168c4.096-2.048 6.144-2.048 10.24-2.048 10.24 0 22.528 4.096 28.672 14.336l370.688 446.464c10.24 10.24 12.288 26.624 6.144 38.912 0 0-14.336 34.816 0 71.68 8.192 18.432-2.048 40.96-20.48 49.152zM415.744 699.904l30.72 36.864c8.192 10.24 28.672 14.336 43.008 10.24l280.576-67.584c16.384-4.096 20.48-14.336 12.288-24.576l-30.72-34.816c-8.192-10.24-28.672-14.336-43.008-10.24l-280.576 67.584c-16.384 2.048-20.48 12.288-12.288 22.528z" />
<glyph unicode="&#xe914;" glyph-name="box" d="M491.52 931.328l-471.040-184.32v-507.904l567.296-278.528 415.744 278.528v507.904l-512 184.32zM845.824 534.016l-75.776-49.152c-12.288-8.192-22.528-4.096-22.528 10.24s8.192 30.72 20.48 36.864l75.776 45.056c10.24 6.144 18.432 0 18.432-10.24 2.048-12.288-6.144-26.624-16.384-32.768zM610.304 536.064l-460.8 180.224 163.84 65.536 438.272-169.984-141.312-75.776zM581.632 46.592l-485.376 239.616v409.6h2.048l489.472-190.464v-454.656l-6.144-4.096zM794.624 634.368l-430.080 165.888 126.976 51.2 423.936-153.6-120.832-63.488z" />
<glyph unicode="&#xe915;" glyph-name="box-link" d="M962.56 480.768c-26.624 26.624-61.44 38.912-98.304 36.864-34.816-2.048-69.632-16.384-96.256-43.008l-104.448-104.448c16.384 16.384 75.776 6.144 92.16-8.192l63.488 63.488c14.336 14.336 30.72 22.528 49.152 22.528 12.288 0 28.672-2.048 45.056-16.384 14.336-14.336 16.384-30.72 16.384-40.96 0-18.432-8.192-36.864-22.528-53.248l-108.544-108.544c-26.624-26.624-69.632-30.72-94.208-6.144-14.336 14.336-36.864 14.336-51.2 0s-14.336-36.864 0-51.2c24.576-24.576 57.344-36.864 92.16-36.864 36.864 0 73.728 14.336 102.4 43.008l108.544 108.544c28.672 28.672 43.008 65.536 43.008 102.4 0 34.816-12.288 67.584-36.864 92.16zM684.032 114.176l-63.488-63.488c-14.336-14.336-30.72-22.528-49.152-22.528-12.288 0-28.672 2.048-45.056 16.384-14.336 14.336-16.384 30.72-16.384 40.96 0 18.432 8.192 36.864 22.528 53.248l108.544 108.544c26.624 26.624 69.632 30.72 94.208 6.144 14.336-14.336 36.864-14.336 51.2 0s14.336 36.864 0 51.2c-24.576 24.576-57.344 36.864-92.16 36.864-36.864 0-73.728-14.336-102.4-43.008l-108.544-108.544c-28.672-28.672-43.008-65.536-43.008-102.4 0-34.816 14.336-67.584 36.864-92.16 26.624-26.624 61.44-38.912 98.304-36.864 34.816 2.048 69.632 16.384 96.256 43.008l104.448 104.448c-18.432-18.432-77.824-8.192-92.16 8.192zM94.208 333.312v378.88h2.048l454.656-176.128v-182.272c24.576 22.528 51.2 38.912 81.92 47.104l-18.432 18.432 104.448 104.448c38.912 38.912 90.112 61.44 143.36 63.488 4.096 0 6.144 0 10.24 0 22.528 0 45.056-4.096 65.536-12.288v186.368l-477.184 172.032-436.224-172.032v-471.040l348.16-169.984c4.096 22.528 12.288 45.056 22.528 67.584l-301.056 145.408zM460.8 857.6l393.216-141.312-92.16-49.152-397.312 153.6 96.256 36.864zM270.336 781.824l409.6-159.744-108.544-57.344-428.032 167.936 126.976 49.152z" />
<glyph unicode="&#xe916;" glyph-name="brands" d="M428.032 589.312c-10.24-22.528-16.384-34.816-28.672-55.296-18.432-28.672-45.056-65.536-79.872-65.536-28.672 0-36.864 18.432-77.824 18.432s-49.152-18.432-77.824-18.432c-32.768 0-59.392 32.768-77.824 61.44-51.2 81.92-57.344 176.128-24.576 227.328 22.528 36.864 59.392 57.344 94.208 57.344s57.344-18.432 86.016-18.432c28.672 0 45.056 18.432 86.016 18.432 30.72 0 63.488-16.384 86.016-45.056-73.728-43.008-61.44-151.552 14.336-180.224v0zM296.96 845.312c14.336 18.432 26.624 45.056 22.528 73.728-24.576-2.048-53.248-16.384-69.632-36.864-14.336-18.432-26.624-45.056-22.528-71.68 26.624 0 55.296 14.336 69.632 34.816v0zM589.824 747.008c-28.672-32.768-57.344-75.776-57.344-108.544 0-12.288 4.096-22.528 12.288-30.72 12.288-12.288 28.672-16.384 43.008-16.384 20.48 0 43.008 8.192 59.392 14.336 28.672 10.24 333.824 143.36 333.824 143.36 2.048 2.048 2.048 4.096-2.048 2.048-2.048 0-333.824-90.112-333.824-90.112-6.144-2.048-12.288-2.048-18.432-2.048-24.576 0-49.152 14.336-47.104 43.008-2.048 14.336 2.048 28.672 10.24 45.056v0zM245.76 386.56c-112.64 0-204.8-92.16-204.8-204.8s92.16-204.8 204.8-204.8c112.64 0 204.8 92.16 204.8 204.8s-92.16 204.8-204.8 204.8zM77.824 278.016c34.816 59.392 96.256 96.256 165.888 96.256l-26.624-176.128-139.264-112.64c-34.816 59.392-34.816 133.12 0 192.512zM245.76-12.8c-67.584 0-131.072 34.816-167.936 94.208l165.888 69.632 167.936-67.584c-32.768-59.392-96.256-96.256-165.888-96.256zM274.432 196.096l-24.576 178.176c67.584-2.048 131.072-36.864 163.84-96.256 34.816-59.392 34.816-131.072 2.048-190.464l-141.312 108.544zM552.96-2.56c0 100.352 53.248 354.304 120.832 354.304 61.44 0 83.968-174.080 83.968-174.080 0-2.048 22.528 174.080 83.968 174.080 79.872-2.048 120.832-249.856 120.832-354.304h-40.96c0 210.944-49.152 327.68-77.824 327.68-24.576 0-57.344-102.4-57.344-305.152h-47.104c0 204.8-36.864 307.2-63.488 307.2-24.576 0-75.776-124.928-75.776-327.68l-47.104-2.048z" />
<glyph unicode="&#xe917;" glyph-name="business-man" d="M647.168 337.408c-6.144 2.048-43.008 18.432-20.48 92.16v0c61.44 63.488 108.544 165.888 108.544 268.288 0 155.648-102.4 237.568-223.232 237.568s-223.232-81.92-223.232-237.568c0-102.4 47.104-204.8 108.544-268.288 24.576-63.488-18.432-88.064-28.672-90.112-124.928-45.056-272.384-129.024-272.384-210.944 0-22.528 0-8.192 0-30.72 0-110.592 215.040-137.216 415.744-137.216s413.696 24.576 413.696 137.216c0 22.528 0 8.192 0 30.72 2.048 83.968-147.456 165.888-278.528 208.896zM438.272 9.728c0 96.256 61.44 227.328 61.44 227.328l-43.008 32.768c0 32.768 55.296 65.536 55.296 65.536s55.296-34.816 55.296-65.536l-43.008-32.768c0 0 61.44-129.024 61.44-227.328 0-16.384-147.456-14.336-147.456 0z" />
<glyph unicode="&#xe918;" glyph-name="calendar" d="M284.672 751.104c20.48 0 36.864 16.384 36.864 36.864v114.688c0 20.48-16.384 36.864-36.864 36.864s-36.864-16.384-36.864-36.864v-112.64c0-22.528 16.384-38.912 36.864-38.912zM890.88 863.744h-75.776v-75.776c0-40.96-34.816-75.776-75.776-75.776s-75.776 34.816-75.776 75.776v75.776h-303.104v-75.776c0-40.96-34.816-75.776-75.776-75.776s-75.776 34.816-75.776 75.776v75.776h-75.776c-61.44 0-112.64-51.2-112.64-112.64v-679.936c0-63.488 51.2-114.688 112.64-114.688h755.712c63.488 0 112.64 51.2 112.64 112.64v681.984c2.048 61.44-49.152 112.64-110.592 112.64zM927.744 69.12c0-20.48-16.384-36.864-36.864-36.864h-757.76c-20.48 0-36.864 16.384-36.864 36.864v530.432h831.488v-530.432zM739.328 751.104c20.48 0 36.864 16.384 36.864 36.864v114.688c0 20.48-16.384 36.864-36.864 36.864s-36.864-16.384-36.864-36.864v-112.64c-2.048-22.528 16.384-38.912 36.864-38.912zM190.464 108.032h643.072c10.24 0 18.432 8.192 18.432 18.432v378.88c0 10.24-8.192 18.432-18.432 18.432h-643.072c-10.24 0-18.432-8.192-18.432-18.432v-378.88c0-10.24 8.192-18.432 18.432-18.432zM815.104 259.584h-112.64v112.64h112.64v-112.64zM663.552 259.584h-75.776v112.64h75.776v-112.64zM360.448 372.224h151.552v-112.64h-151.552v112.64zM360.448 183.808h151.552v-36.864h-151.552v36.864zM548.864 185.856c16.384 6.144 28.672 18.432 34.816 34.816h79.872v-75.776h-112.64v40.96zM583.68 411.136c-6.144 16.384-18.432 28.672-34.816 34.816v40.96h112.64v-75.776h-77.824zM512 448h-151.552v36.864h151.552v-36.864zM284.672 259.584h-75.776v112.64h75.776v-112.64zM208.896 220.672h79.872c6.144-16.384 18.432-28.672 34.816-34.816v-40.96h-112.64v75.776zM700.416 144.896v75.776h112.64v-75.776h-112.64zM815.104 411.136h-112.64v75.776h112.64v-75.776zM323.584 484.864v-40.96c-16.384-6.144-28.672-18.432-34.816-34.816h-79.872v75.776h114.688z" />
<glyph unicode="&#xe919;" glyph-name="camera" d="M133.12 751.104v36.864c0 20.48 16.384 36.864 36.864 36.864h75.776c20.48 0 36.864-16.384 36.864-36.864v-36.864c2.048-20.48-149.504-20.48-149.504 0zM890.88 751.104h-757.76c-63.488 0-112.64-51.2-112.64-112.64v-378.88c0-63.488 51.2-112.64 112.64-112.64h755.712c63.488 0 112.64 51.2 112.64 112.64v376.832c2.048 63.488-49.152 114.688-110.592 114.688zM284.672 599.552h-151.552v75.776h151.552v-75.776zM663.552 218.624c-126.976 0-229.376 102.4-229.376 229.376s102.4 229.376 229.376 229.376c126.976 0 229.376-102.4 229.376-229.376s-102.4-229.376-229.376-229.376zM663.552 304.64c-79.872 0-143.36 65.536-143.36 143.36s65.536 143.36 143.36 143.36c79.872 0 143.36-65.536 143.36-143.36s-63.488-143.36-143.36-143.36z" />
<glyph unicode="&#xe91a;" glyph-name="cancel" d="M856.064 185.856l-81.92-81.92c-14.336-14.336-38.912-14.336-55.296 0l-206.848 206.848-206.848-206.848c-14.336-14.336-38.912-14.336-55.296 0l-81.92 81.92c-14.336 14.336-14.336 38.912 0 55.296l206.848 206.848-206.848 206.848c-14.336 14.336-14.336 40.96 0 55.296l81.92 81.92c14.336 14.336 38.912 14.336 55.296 0l206.848-206.848 206.848 206.848c14.336 14.336 38.912 14.336 55.296 0l81.92-81.92c14.336-14.336 14.336-40.96 0-55.296l-206.848-206.848 206.848-206.848c14.336-14.336 14.336-38.912 0-55.296z" />
<glyph unicode="&#xe91b;" glyph-name="car" d="M845.824 255.488c0-48.636-39.428-88.064-88.064-88.064s-88.064 39.428-88.064 88.064c0 48.636 39.428 88.064 88.064 88.064s88.064-39.428 88.064-88.064zM354.304 255.488c0-48.636-39.428-88.064-88.064-88.064s-88.064 39.428-88.064 88.064c0 48.636 39.428 88.064 88.064 88.064s88.064-39.428 88.064-88.064zM815.104 538.112c-32.768 0-32.768 0-67.584 38.912-30.72 36.864-102.4 124.928-102.4 124.928-10.24 14.336-36.864 24.576-57.344 24.576h-264.192c-20.48 0-40.96-10.24-47.104-24.576 0 0-69.632-90.112-96.256-126.976-28.672-36.864-26.624-36.864-61.44-36.864-22.528 0-59.392 0-59.392 0-20.48 0-36.864-16.384-36.864-36.864v-188.416c0-20.48 16.384-36.864 36.864-36.864h75.776c10.24 65.536 65.536 114.688 133.12 114.688s122.88-51.2 133.12-114.688h227.328c10.24 65.536 65.536 114.688 133.12 114.688s122.88-51.2 133.12-114.688h75.776c20.48 0 36.864 16.384 36.864 36.864v75.776c-4.096 36.864-43.008 149.504-192.512 149.504zM241.664 538.112l77.824 104.448c0 0 10.24 10.24 16.384 10.24h100.352v-112.64h-194.56zM512 538.112v114.688h61.44c12.288 0 24.576-6.144 28.672-10.24l83.968-102.4h-174.080z" />
<glyph unicode="&#xe91c;" glyph-name="cart" d="M851.968 304.64l135.168 290.816c20.48 51.2 10.24 116.736-67.584 116.736-88.064 0-514.048 0-548.864 0-6.144 0-12.288 0-20.48-2.048l-36.864 129.024c-12.288 49.152-38.912 100.352-122.88 100.352h-133.12c-20.48 0-36.864-16.384-36.864-36.864s16.384-36.864 36.864-36.864h131.072c30.72 0 40.96-6.144 53.248-47.104l176.128-602.112c0-2.048 0-2.048 2.048-4.096 2.048-4.096 43.008-104.448 149.504-104.448h296.96c20.48 0 36.864 16.384 36.864 36.864s-16.384 36.864-36.864 36.864h-296.96c-49.152 0-73.728 47.104-77.824 55.296l-6.144 20.48h307.2c38.912 2.048 55.296 34.816 59.392 47.104zM421.888 517.632h122.88v-63.488h-102.4l-20.48 63.488zM544.768 404.992v-67.584h-61.44c-2.048 0-2.048 0-4.096 2.048l-20.48 67.584h86.016zM593.92 404.992h102.4v-67.584h-102.4v67.584zM593.92 454.144v63.488h102.4v-63.488h-102.4zM593.92 566.784v67.584h102.4v-67.584h-102.4zM745.472 517.632h122.88l-30.72-63.488h-92.16v63.488zM917.504 626.176l-26.624-59.392h-145.408v67.584h174.080c0-2.048-2.048-4.096-2.048-8.192zM544.768 634.368v-67.584h-139.264l-18.432 57.344c-2.048 4.096-2.048 8.192-2.048 10.24h159.744zM745.472 337.408v67.584h69.632l-30.72-67.584h-38.912zM548.864 99.84c-36.864 0-67.584-30.72-67.584-67.584s30.72-67.584 67.584-67.584c36.864 0 67.584 30.72 67.584 67.584s-28.672 67.584-67.584 67.584zM776.192 99.84c-36.864 0-67.584-30.72-67.584-67.584s30.72-67.584 67.584-67.584c36.864 0 67.584 30.72 67.584 67.584s-28.672 67.584-67.584 67.584z" />
<glyph unicode="&#xe91d;" glyph-name="chat-user" d="M512 933.376c-266.24 0-485.376-194.56-485.376-432.128 0-112.64 49.152-217.088 135.168-299.008-6.144-47.104-38.912-73.728-75.776-102.4-32.768-26.624-65.536-53.248-65.536-96.256 0-16.384 12.288-32.768 28.672-36.864 22.528-6.144 47.104-8.192 71.68-8.192 114.688 0 239.616 63.488 309.248 114.688 28.672-4.096 55.296-6.144 83.968-6.144 266.24 0 485.376 194.56 485.376 432.128-2.048 239.616-221.184 434.176-487.424 434.176zM512 142.848c-28.672 0-57.344 2.048-86.016 8.192-10.24 2.048-22.528 0-30.72-8.192-57.344-49.152-172.032-106.496-268.288-108.544 2.048 2.048 6.144 4.096 8.192 6.144 40.96 32.768 104.448 83.968 104.448 178.176 0 10.24-4.096 20.48-12.288 28.672-81.92 67.584-124.928 157.696-124.928 253.952 0 196.608 184.32 356.352 409.6 356.352s409.6-159.744 409.6-356.352c0-196.608-184.32-358.4-409.6-358.4zM573.44 472.576c-2.048 0-20.48 8.192-10.24 43.008v0c28.672 28.672 51.2 77.824 51.2 122.88 0 71.68-47.104 108.544-102.4 108.544s-102.4-36.864-102.4-108.544c0-47.104 22.528-94.208 51.2-122.88 10.24-28.672-8.192-40.96-12.288-40.96-57.344-20.48-126.976-59.392-126.976-96.256 0-10.24 0-4.096 0-14.336 0-51.2 100.352-63.488 192.512-63.488s190.464 12.288 190.464 63.488c0 10.24 0 4.096 0 14.336-2.048 36.864-69.632 73.728-131.072 94.208z" />
<glyph unicode="&#xe91e;" glyph-name="checkbox" d="M819.2 939.52h-614.4c-102.4 0-184.32-81.92-184.32-184.32v-614.4c0-102.4 81.92-184.32 184.32-184.32h614.4c102.4 0 184.32 81.92 184.32 184.32v614.4c0 102.4-81.92 184.32-184.32 184.32zM927.744 140.8c0-59.392-49.152-108.544-108.544-108.544h-614.4c-59.392 0-108.544 49.152-108.544 108.544v614.4c0 59.392 49.152 108.544 108.544 108.544h614.4c59.392 0 108.544-49.152 108.544-108.544v-614.4zM772.096 759.296c-16.384 10.24-38.912 6.144-51.2-10.24l-294.912-436.224-135.168 135.168c-14.336 14.336-36.864 14.336-51.2 0l-51.2-51.2c-14.336-14.336-14.336-36.864 0-51.2l208.896-208.896c12.288-12.288 30.72-20.48 47.104-20.48s32.768 10.24 43.008 26.624l356.352 524.288c10.24 16.384 6.144 38.912-10.24 51.2l-61.44 40.96z" />
<glyph unicode="&#xe91f;" glyph-name="choices" d="M460.8 904.704h-380.928c-12.288 0-24.576-12.288-24.576-24.576v-380.928c0-12.288 12.288-24.576 24.576-24.576h380.928c12.288 0 24.576 12.288 24.576 24.576v380.928c-2.048 12.288-12.288 24.576-24.576 24.576zM436.224 534.016h-333.824v323.584h333.824v-323.584zM944.128 904.704h-380.928c-12.288 0-24.576-12.288-24.576-24.576v-380.928c0-12.288 12.288-24.576 24.576-24.576h380.928c12.288 0 24.576 12.288 24.576 24.576v380.928c0 12.288-12.288 24.576-24.576 24.576zM921.6 534.016h-333.824v323.584h333.824v-323.584zM458.752 425.472h-378.88c-12.288 0-24.576-12.288-24.576-24.576v-380.928c0-12.288 12.288-22.528 24.576-22.528h380.928c12.288 0 24.576 12.288 24.576 24.576v378.88c-2.048 14.336-12.288 24.576-26.624 24.576zM434.176 52.736h-331.776v323.584h333.824v-323.584zM944.128 419.328h-380.928c-12.288 0-24.576-12.288-24.576-24.576v-380.928c0-12.288 12.288-24.576 24.576-24.576h380.928c12.288 0 24.576 12.288 24.576 24.576v382.976c0 12.288-12.288 22.528-24.576 22.528zM921.6 48.64h-333.824v323.584h333.824v-323.584zM516.096 919.040l-32.768 22.528c-8.192 6.144-20.48 4.096-26.624-6.144l-159.744-235.52-73.728 73.728c-8.192 8.192-20.48 8.192-28.672 0l-28.672-28.672c-8.192-8.192-8.192-20.48 0-28.672l112.64-112.64c6.144-6.144 16.384-10.24 24.576-10.24s18.432 6.144 24.576 14.336l192.512 284.672c8.192 8.192 6.144 22.528-4.096 26.624zM516.096 427.52l-32.768 22.528c-8.192 6.144-20.48 4.096-26.624-6.144l-159.744-235.52-73.728 73.728c-8.192 8.192-20.48 8.192-28.672 0l-28.672-28.672c-8.192-8.192-8.192-20.48 0-28.672l112.64-112.64c6.144-6.144 16.384-10.24 24.576-10.24s18.432 6.144 24.576 14.336l192.512 284.672c8.192 8.192 6.144 22.528-4.096 26.624zM987.136 427.52l-32.768 22.528c-8.192 6.144-20.48 4.096-26.624-6.144l-159.744-235.52-73.728 73.728c-8.192 8.192-20.48 8.192-28.672 0l-28.672-28.672c-8.192-8.192-8.192-20.48 0-28.672l112.64-112.64c6.144-6.144 16.384-10.24 24.576-10.24s18.432 6.144 24.576 14.336l192.512 284.672c8.192 8.192 6.144 22.528-4.096 26.624z" />
<glyph unicode="&#xe920;" glyph-name="clipboard" d="M323.584 560.64h378.88v-75.776h-378.88v75.776zM323.584 411.136h264.192v-75.776h-264.192v75.776zM323.584 259.584h378.88v-75.776h-378.88v75.776zM776.192 826.88h-75.776c0 40.96-34.816 75.776-75.776 75.776h-47.104c-2.048 6.144-6.144 12.288-12.288 16.384-10.24 10.24-26.624 20.48-53.248 20.48s-45.056-12.288-53.248-20.48c-6.144-6.144-8.192-10.24-12.288-16.384h-47.104c-40.96 0-75.776-34.816-75.776-75.776h-75.776c-63.488 0-114.688-51.2-114.688-114.688v-643.072c0-63.488 51.2-112.64 112.64-112.64h528.384c63.488 0 112.64 51.2 112.64 112.64v643.072c4.096 63.488-47.104 114.688-110.592 114.688zM399.36 826.88h112.64v-2.048h114.688v-75.776h-227.328v77.824zM776.192 69.12h-528.384v643.072h86.016c12.288-22.528 36.864-36.864 65.536-36.864h227.328c28.672 0 51.2 14.336 65.536 36.864h86.016v-643.072z" />
<glyph unicode="&#xe921;" glyph-name="clock" d="M733.184 495.104h-174.080v206.848c0 26.624-20.48 47.104-47.104 47.104s-47.104-20.48-47.104-47.104v-301.056h270.336c26.624 0 47.104 20.48 47.104 47.104s-22.528 47.104-49.152 47.104zM512 939.52c-272.384 0-491.52-219.136-491.52-491.52s219.136-491.52 491.52-491.52 491.52 219.136 491.52 491.52-219.136 491.52-491.52 491.52zM512 50.688c-219.136 0-397.312 178.176-397.312 397.312s178.176 397.312 397.312 397.312 397.312-178.176 397.312-397.312-178.176-397.312-397.312-397.312z" />
<glyph unicode="&#xe922;" glyph-name="close" d="M512 933.376c-268.288 0-485.376-217.088-485.376-485.376s217.088-485.376 485.376-485.376c268.288 0 485.376 217.088 485.376 485.376s-217.088 485.376-485.376 485.376zM731.136 282.112l-53.248-53.248c-10.24-10.24-24.576-10.24-34.816 0l-131.072 131.072-131.072-131.072c-10.24-10.24-24.576-10.24-34.816 0l-53.248 53.248c-10.24 10.24-10.24 24.576 0 34.816l131.072 131.072-131.072 131.072c-10.24 10.24-10.24 24.576 0 34.816l53.248 53.248c10.24 10.24 24.576 10.24 34.816 0l131.072-131.072 131.072 131.072c10.24 10.24 24.576 10.24 34.816 0l53.248-53.248c10.24-10.24 10.24-24.576 0-34.816l-131.072-131.072 131.072-131.072c8.192-10.24 8.192-24.576 0-34.816z" />
<glyph unicode="&#xe923;" glyph-name="colors" d="M77.824 93.696l63.488-26.624v432.128l-114.688-280.576c-18.432-49.152 4.096-104.448 51.2-124.928zM997.376 269.824l-233.472 573.44c-14.336 36.864-49.152 57.344-86.016 59.392-12.288 0-24.576-2.048-36.864-8.192l-346.112-145.408c-34.816-14.336-57.344-49.152-57.344-86.016 0-12.288 2.048-26.624 6.144-38.912l233.472-573.44c14.336-36.864 49.152-59.392 86.016-59.392 12.288 0 24.576 2.048 36.864 8.192l346.112 145.408c47.104 20.48 69.632 77.824 51.2 124.928zM329.728 615.936c-26.624 0-47.104 22.528-47.104 47.104 0 26.624 20.48 47.104 47.104 47.104s47.104-22.528 47.104-47.104c0-26.624-20.48-47.104-47.104-47.104zM235.52 87.552c0-53.248 43.008-96.256 94.208-96.256h67.584l-161.792 399.36v-303.104z" />
<glyph unicode="&#xe924;" glyph-name="combination" d="M20.48 212.48h256v-256h-256v256zM307.2 212.48h256v-256h-256v256zM20.48 499.2h256v-256h-256v256zM20.48 785.92h256v-256h-256v256zM307.2 499.2h256v-256h-256v256zM593.92 212.48h256v-256h-256v256zM962.56 898.56v-184.32h-184.32v184.32h184.32zM1003.52 939.52h-266.24v-266.24h266.24v266.24zM528.384 853.504l108.544-149.504-149.504-108.544-108.544 149.504 149.504 108.544zM536.576 910.848l-215.040-155.648 155.648-217.088 215.040 155.648-155.648 217.088zM925.696 472.576l-96.256-157.696-157.696 96.256 96.256 157.696 157.696-96.256zM980.992 486.912l-227.328 139.264-139.264-227.328 227.328-139.264 139.264 227.328z" />
<glyph unicode="&#xe925;" glyph-name="communication" d="M94.208 79.36c-16.384 0-34.816 2.048-51.2 6.144-12.288 4.096-22.528 16.384-22.528 30.72 0 32.768 24.576 53.248 47.104 71.68s45.056 36.864 49.152 65.536c-59.392 57.344-92.16 131.072-92.16 210.944 0 169.984 153.6 307.2 344.064 307.2s344.064-137.216 344.064-307.2-153.6-307.2-344.064-307.2c-18.432 0-38.912 2.048-57.344 4.096-49.152-38.912-135.168-81.92-217.088-81.92zM368.64 708.096c-155.648 0-280.576-108.544-280.576-243.712 0-65.536 28.672-126.976 83.968-172.032 6.144-6.144 10.24-14.336 10.24-24.576 0-63.488-36.864-98.304-67.584-122.88 61.44 8.192 131.072 43.008 167.936 73.728 8.192 6.144 16.384 8.192 26.624 6.144 20.48-4.096 40.96-6.144 59.392-6.144 155.648 0 280.576 108.544 280.576 243.712s-124.928 245.76-280.576 245.76zM897.024 327.168c63.488 55.296 102.4 129.024 102.4 212.992 0 165.888-151.552 299.008-337.92 299.008-45.056 0-86.016-8.192-124.928-20.48 151.552-59.392 256-196.608 256-354.304 0-79.872-26.624-155.648-73.728-217.088 4.096 0 8.192 0 12.288 2.048 36.864-18.432 186.368-86.016 262.144-55.296 6.144 20.48-81.92 53.248-96.256 133.12z" />
<glyph unicode="&#xe926;" glyph-name="cone" d="M849.92 302.592c0 0-2.048 22.528-34.816 22.528-4.096 0-36.864 0-67.584 0-40.96 137.216-106.496 354.304-149.504 487.424l-32.768 116.736c0 0-2.048 0-4.096-2.048 0 0 0 0 0 0 2.048 8.192-20.48 12.288-49.152 12.288s-51.2-4.096-51.2-10.24c-10.24-30.72-126.976-407.552-186.368-608.256-36.864 0-73.728 4.096-77.824 4.096-22.528 0-24.576-20.48-24.576-20.48l-92.16-319.488 18.432-28.672h837.632l10.24 28.672-96.256 317.44zM512 792.064c6.144 0 10.24 0 14.336 0 16.384-55.296 38.912-124.928 61.44-196.608-20.48-4.096-45.056-8.192-75.776-8.192s-55.296 4.096-75.776 8.192c22.528 71.68 43.008 141.312 61.44 196.608 4.096 0 8.192 0 14.336 0zM512 380.416c59.392 0 102.4 10.24 133.12 20.48 22.528-75.776 43.008-141.312 53.248-180.224-47.104-24.576-114.688-43.008-186.368-43.008-73.728 0-141.312 16.384-190.464 40.96 12.288 38.912 30.72 106.496 55.296 182.272 32.768-10.24 75.776-20.48 135.168-20.48z" />
<glyph unicode="&#xe927;" glyph-name="creditcard" d="M890.88 484.864h-530.432c-63.488 0-112.64-51.2-112.64-112.64v-301.056c0-63.488 51.2-112.64 112.64-112.64h528.384c63.488 0 112.64 51.2 112.64 112.64v301.056c2.048 63.488-49.152 112.64-110.592 112.64zM942.080 69.12c0-28.672-24.576-53.248-53.248-53.248h-528.384c-28.672 0-53.248 24.576-53.248 53.248v151.552h634.88v-151.552zM307.2 335.36v36.864c0 28.672 24.576 53.248 53.248 53.248h528.384c28.672 0 53.248-24.576 53.248-53.248v-36.864h-634.88zM172.032 372.224c0 104.448 83.968 188.416 188.416 188.416h477.184l-71.68 292.864c-14.336 61.44-75.776 98.304-137.216 83.968l-514.048-126.976c-61.44-14.336-98.304-75.776-83.968-137.216l71.68-292.864c8.192-36.864 34.816-65.536 67.584-77.824v69.632zM696.32 775.68l30.72-129.024-129.024-30.72-30.72 126.976 129.024 32.768z" />
<glyph unicode="&#xe928;" glyph-name="database" d="M512 939.52c-237.568 0-432.128-86.016-432.128-192.512s192.512-192.512 432.128-192.512 432.128 86.016 432.128 192.512-194.56 192.512-432.128 192.512zM512 503.296c-237.568 0-432.128 86.016-432.128 192.512 0-45.056 0-73.728 0-147.456 0-106.496 192.512-192.512 432.128-192.512s432.128 86.016 432.128 192.512c0 38.912 0 79.872 0 147.456 0-106.496-194.56-192.512-432.128-192.512zM512 302.592c-237.568 0-432.128 86.016-432.128 192.512 0-45.056 0-73.728 0-147.456 0-106.496 192.512-192.512 432.128-192.512s432.128 86.016 432.128 192.512c0 38.912 0 79.872 0 147.456 0-106.496-194.56-192.512-432.128-192.512zM512 103.936c-237.568 0-432.128 86.016-432.128 192.512 0-45.056 0-73.728 0-147.456 0-106.496 192.512-192.512 432.128-192.512s432.128 86.016 432.128 192.512c0 38.912 0 79.872 0 147.456 0-106.496-194.56-192.512-432.128-192.512z" />
<glyph unicode="&#xe929;" glyph-name="date" d="M399.36 108.032h131.072l133.12 319.488v57.344h-303.104v-86.016h182.272zM284.672 751.104c20.48 0 36.864 16.384 36.864 36.864v114.688c0 20.48-16.384 36.864-36.864 36.864s-36.864-16.384-36.864-36.864v-112.64c0-22.528 16.384-38.912 36.864-38.912zM890.88 863.744h-75.776v-75.776c0-40.96-34.816-75.776-75.776-75.776s-75.776 34.816-75.776 75.776v75.776h-303.104v-75.776c0-40.96-34.816-75.776-75.776-75.776s-75.776 34.816-75.776 75.776v75.776h-75.776c-61.44 0-112.64-51.2-112.64-112.64v-679.936c0-63.488 51.2-114.688 112.64-114.688h755.712c63.488 0 112.64 51.2 112.64 112.64v681.984c2.048 61.44-49.152 112.64-110.592 112.64zM927.744 69.12c0-20.48-16.384-36.864-36.864-36.864h-757.76c-20.48 0-36.864 16.384-36.864 36.864v530.432h831.488v-530.432zM739.328 751.104c20.48 0 36.864 16.384 36.864 36.864v114.688c0 20.48-16.384 36.864-36.864 36.864s-36.864-16.384-36.864-36.864v-112.64c-2.048-22.528 16.384-38.912 36.864-38.912z" />
<glyph unicode="&#xe92a;" glyph-name="delete" d="M624.64 560.64h75.776v-452.608h-75.776v452.608zM475.136 560.64h75.776v-452.608h-75.776v452.608zM323.584 560.64h75.776v-452.608h-75.776v452.608zM888.832 712.192v36.864c0 20.48-16.384 36.864-36.864 36.864h-149.504v18.432c0 73.728-59.392 135.168-133.12 135.168h-112.64c-73.728 0-133.12-61.44-133.12-137.216v-16.384h-151.552c-20.48 0-36.864-16.384-36.864-36.864v-36.864h-38.912v-75.776h75.776v-565.248c0-61.44 51.2-112.64 112.64-112.64h452.608c61.44 0 112.64 51.2 112.64 112.64v565.248h75.776v75.776h-36.864zM399.36 804.352c0 32.768 24.576 57.344 55.296 57.344h112.64c30.72 0 55.296-26.624 55.296-57.344v-16.384h-223.232v16.384zM776.192 69.12c0-20.48-16.384-36.864-36.864-36.864h-454.656c-20.48 0-36.864 16.384-36.864 36.864v567.296h192.512c4.096 0 10.24-2.048 14.336-2.048h112.64c4.096 0 10.24 0 14.336 2.048h192.512v-567.296z" />
<glyph unicode="&#xe92b;" glyph-name="desktop" d="M815.104-6.656h-606.208v36.864c0 0 16.384 36.864 36.864 36.864h528.384c20.48 0 36.864-16.384 36.864-36.864v-36.864zM890.88 939.52h-757.76c-61.44 0-112.64-51.2-112.64-112.64v-528.384c0-63.488 51.2-112.64 112.64-112.64h264.192v-36.864c0-20.48 16.384-36.864 36.864-36.864h151.552c20.48 0 36.864 20.48 36.864 36.864 0 8.192 0 22.528 0 36.864h264.192c63.488 0 112.64 51.2 112.64 112.64v528.384c4.096 61.44-47.104 112.64-108.544 112.64zM96.256 372.224v454.656c0 20.48 16.384 36.864 36.864 36.864h755.712c20.48 0 36.864-16.384 36.864-36.864v-454.656c0-20.48-16.384-36.864-36.864-36.864h-755.712c-20.48 0-36.864 16.384-36.864 36.864zM890.88 220.672c-22.528 0-38.912 18.432-38.912 38.912 0 22.528 18.432 38.912 38.912 38.912 22.528 0 38.912-18.432 38.912-38.912 0-22.528-18.432-38.912-38.912-38.912z" />
<glyph unicode="&#xe92c;" glyph-name="dialog-close" d="M512 933.376c-268.288 0-485.376-217.088-485.376-485.376s217.088-485.376 485.376-485.376c268.288 0 485.376 217.088 485.376 485.376s-217.088 485.376-485.376 485.376zM757.76 259.584l-57.344-57.344-188.416 188.416-188.416-188.416-57.344 57.344 188.416 188.416-188.416 188.416 57.344 57.344 188.416-188.416 188.416 188.416 57.344-57.344-188.416-188.416 188.416-188.416z" />
<glyph unicode="&#xe92d;" glyph-name="dialog-enlarge" d="M286.72 632.32h450.56v-368.64h-450.56v368.64zM512 933.376c-268.288 0-485.376-217.088-485.376-485.376s217.088-485.376 485.376-485.376c268.288 0 485.376 217.088 485.376 485.376s-217.088 485.376-485.376 485.376zM819.2 181.76h-614.4v532.48h614.4v-532.48z" />
<glyph unicode="&#xe92e;" glyph-name="dialog-minimize" d="M512 933.376c-268.288 0-485.376-217.088-485.376-485.376s217.088-485.376 485.376-485.376c268.288 0 485.376 217.088 485.376 485.376s-217.088 485.376-485.376 485.376zM204.8 632.32v81.92h614.4v-81.92z" />
<glyph unicode="&#xe92f;" glyph-name="directions" d="M512 939.52c-22.528 0-40.96-18.432-40.96-40.96v-942.080h81.92v942.080c0 22.528-18.432 40.96-40.96 40.96zM901.12 673.28h-307.2v163.84h307.2l81.92-81.92zM901.12 468.48h-307.2v163.84h307.2l81.92-81.92zM122.88 570.88h307.2v163.84h-307.2l-81.92-81.92z" />
<glyph unicode="&#xe930;" glyph-name="directions-temp" d="M512 939.52c-22.528 0-40.96-18.432-40.96-40.96v-942.080h81.92v942.080c0 22.528-18.432 40.96-40.96 40.96zM901.12 673.28h-307.2v163.84h307.2l81.92-81.92zM901.12 468.48h-307.2v163.84h307.2l81.92-81.92zM122.88 570.88h307.2v163.84h-307.2l-81.92-81.92zM819.2 284.16c77.824 0 143.36-63.488 143.36-143.36s-63.488-143.36-143.36-143.36c-77.824 0-143.36 63.488-143.36 143.36s65.536 143.36 143.36 143.36zM819.2 323.072c-100.352 0-182.272-81.92-182.272-182.272s81.92-182.272 182.272-182.272 182.272 81.92 182.272 182.272-81.92 182.272-182.272 182.272v0zM819.2 167.424c-14.336 0-26.624-12.288-26.624-26.624s12.288-26.624 26.624-26.624 26.624 12.288 26.624 26.624-12.288 26.624-26.624 26.624zM819.2 128.512v0c-8.192 0-14.336 6.144-14.336 14.336l4.096 94.208c0 4.096 2.048 10.24 10.24 10.24 6.144 0 10.24-6.144 10.24-10.24l4.096-94.208c0-8.192-6.144-14.336-14.336-14.336zM811.008 151.040v0c8.192 8.192 18.432 8.192 24.576 2.048l65.536-73.728c2.048-2.048 4.096-10.24-2.048-16.384s-14.336-4.096-16.384-2.048l-73.728 65.536c-8.192 4.096-6.144 16.384 2.048 24.576z" />
<glyph unicode="&#xe931;" glyph-name="sort-asc" d="M729.088 695.808c-2.048-8.192-8.192-10.24-16.384-10.24h-126.976v-710.656c0-6.144-2.048-10.24-4.096-12.288-4.096-4.096-8.192-4.096-12.288-4.096h-108.544c-6.144 0-10.24 2.048-12.288 4.096-4.096 4.096-6.144 8.192-6.144 12.288v710.656h-126.976c-8.192 0-12.288 4.096-16.384 10.24-2.048 8.192-2.048 14.336 2.048 20.48l202.752 219.136c0 2.048 4.096 4.096 10.24 4.096 4.096 0 10.24-2.048 12.288-6.144l198.656-219.136c6.144-4.096 6.144-12.288 4.096-18.432z" />
<glyph unicode="&#xe932;" glyph-name="sort-desc" d="M729.088 200.192c-2.048 8.192-8.192 10.24-16.384 10.24h-126.976v710.656c0 6.144-2.048 10.24-4.096 12.288-6.144 4.096-10.24 6.144-14.336 6.144h-108.544c-6.144 0-10.24-2.048-12.288-4.096-4.096-4.096-6.144-8.192-6.144-12.288v-710.656h-126.976c-8.192 0-12.288-4.096-16.384-10.24-2.048-8.192-2.048-14.336 2.048-20.48l202.752-219.136c4.096-4.096 8.192-6.144 14.336-6.144 4.096 0 10.24 2.048 12.288 6.144l198.656 219.136c4.096 4.096 4.096 12.288 2.048 18.432z" />
<glyph unicode="&#xe933;" glyph-name="loader1" d="M735.539 674.636c14.677-12.335 33.321-19.117 52.449-19.117 24.272 0 47.116 10.645 62.717 29.206 28.975 34.529 24.45 86.201-10.078 115.197-14.698 12.335-33.342 19.128-52.491 19.128-24.261 0-47.106-10.645-62.685-29.206-28.986-34.539-24.45-86.201 10.089-115.208zM928.518 581.055c-5.071 0-10.194-0.451-15.201-1.333-47.085-8.304-78.663-53.394-70.359-100.5 7.307-41.521 43.158-71.651 85.235-71.651 5.060 0 10.204 0.451 15.233 1.323 47.085 8.315 78.653 53.394 70.349 100.479-7.328 41.531-43.19 71.682-85.256 71.682zM925.505 297.423c-13.942 8.063-29.752 12.304-45.709 12.304-32.734 0-63.221-17.585-79.566-45.888-12.23-21.196-15.506-45.888-9.154-69.551s21.542-43.452 42.717-55.683c13.952-8.073 29.763-12.325 45.741-12.325 32.713 0 63.2 17.574 79.535 45.867 25.259 43.799 10.204 99.996-33.563 125.276zM664.708 134.354c-11.233 0-22.361-1.974-33.070-5.858-24.251-8.829-43.599-26.582-54.517-49.982-10.908-23.401-12.052-49.646-3.233-73.908 13.858-38.067 50.371-63.651 90.852-63.651 11.233 0 22.361 1.974 33.038 5.869 24.23 8.829 43.568 26.571 54.496 50.014 10.918 23.411 12.073 49.657 3.275 73.876-13.837 38.056-50.36 63.64-90.841 63.64zM418.912 133.189c-11.275 4.094-22.97 6.173-34.749 6.173-42.56 0-80.942-26.897-95.503-66.926-9.301-25.521-8.094-53.121 3.38-77.719 11.464-24.608 31.82-43.263 57.341-52.554 11.254-4.105 22.96-6.162 34.77-6.162 42.581 0 80.952 26.897 95.503 66.895 9.28 25.469 8.063 53.069-3.422 77.687-11.496 24.65-31.841 43.326-57.32 52.607zM261.575 271.314c-19.002 32.891-54.412 53.31-92.437 53.31-18.592 0-36.975-4.955-53.195-14.288-24.671-14.246-42.308-37.258-49.667-64.732-7.38-27.505-3.601-56.239 10.645-80.9 19.002-32.902 54.423-53.331 92.448-53.331 18.582 0 36.964 4.955 53.174 14.299 50.896 29.385 68.407 94.726 39.033 145.642zM120.677 382.69c54.15 0 100.311 38.791 109.738 92.238 5.165 29.364-1.396 58.969-18.498 83.356-17.081 24.419-42.654 40.712-72.029 45.898-6.509 1.134-13.091 1.711-19.527 1.711-54.15 0-100.311-38.781-109.738-92.227-5.165-29.343 1.396-58.948 18.498-83.367 17.091-24.408 42.675-40.712 72.029-45.888 6.477-1.144 13.049-1.722 19.527-1.722zM260.871 620.707c27.285 0 53.867 9.69 74.853 27.274 23.81 19.978 38.413 48.082 41.132 79.136s-6.792 61.268-26.781 85.078c-22.193 26.456-54.769 41.626-89.351 41.626-27.327 0-53.909-9.679-74.863-27.264-23.842-20.010-38.476-48.114-41.185-79.125-2.719-30.991 6.803-61.215 26.823-85.078 22.225-26.466 54.79-41.647 89.372-41.647zM651.217 833.223c0-70.017-56.76-126.777-126.777-126.777s-126.777 56.76-126.777 126.777c0 70.017 56.76 126.777 126.777 126.777s126.777-56.76 126.777-126.777z" />
<glyph unicode="&#xe934;" glyph-name="loader2" d="M655.749 840.229c0-66.148-53.623-119.771-119.771-119.771s-119.771 53.623-119.771 119.771c0 66.148 53.623 119.771 119.771 119.771s119.771-53.623 119.771-119.771zM607.832 7.855c0-39.684-32.171-71.855-71.855-71.855s-71.855 32.171-71.855 71.855c0 39.684 32.171 71.855 71.855 71.855s71.855-32.171 71.855-71.855zM349.481 718.359c0-59.537-48.264-107.802-107.802-107.802s-107.802 48.264-107.802 107.802c0 59.537 48.264 107.802 107.802 107.802s107.802-48.264 107.802-107.802zM890.161 129.802c0-33.074-26.812-59.886-59.886-59.886s-59.886 26.812-59.886 59.886c0 33.074 26.812 59.886 59.886 59.886s59.886-26.812 59.886-59.886zM215.565 424.022c0-52.905-42.888-95.794-95.794-95.794s-95.794 42.888-95.794 95.794c0 52.905 42.888 95.794 95.794 95.794s95.794-42.888 95.794-95.794zM1000.022 424.061c0-26.442-21.435-47.877-47.877-47.877s-47.877 21.435-47.877 47.877c0 26.442 21.435 47.877 47.877 47.877s47.877-21.435 47.877-47.877zM182.416 188.988c-32.76-32.76-32.76-85.767 0-118.528 32.721-32.76 85.806-32.76 118.528 0 32.76 32.76 32.76 85.767 0 118.528-32.721 32.799-85.767 33.11-118.528 0zM866.145 718.359c0-19.831-16.077-35.908-35.908-35.908s-35.908 16.077-35.908 35.908c0 19.831 16.077 35.908 35.908 35.908s35.908-16.077 35.908-35.908z" />
<glyph unicode="&#xe935;" glyph-name="move" d="M450.717 117.177h-79.196c-16.133 0-24.304-19.485-13.199-31.008l140.584-144.565c7.123-7.333 19.066-7.333 26.189 0l140.584 144.565c11.314 11.523 3.143 31.008-13.199 31.008h-79.196v269.645h269.645v-79.196c0-16.133 19.485-24.304 31.008-13.199l144.565 140.584c7.333 7.123 7.333 19.066 0 26.189l-144.565 140.584c-11.523 11.314-31.008 3.143-31.008-13.199v-79.196h-269.854v269.435h79.196c16.133 0 24.304 19.485 13.199 31.008l-140.584 144.565c-7.123 7.333-19.066 7.333-26.189 0l-140.584-144.565c-11.314-11.523-3.143-31.008 13.199-31.008h79.196v-269.645h-269.435v79.196c0 16.133-19.485 24.304-31.008 13.199l-144.565-140.584c-7.333-7.123-7.333-19.066 0-26.189l144.565-140.584c11.523-11.314 31.008-3.143 31.008 13.199v79.196h269.645v-269.435z" />
<glyph unicode="&#xe936;" glyph-name="quickmenu" d="M640 448c0-70.692-57.308-128-128-128s-128 57.308-128 128c0 70.692 57.308 128 128 128s128-57.308 128-128zM640 64c0-70.692-57.308-128-128-128s-128 57.308-128 128c0 70.692 57.308 128 128 128s128-57.308 128-128zM640 832c0-70.692-57.308-128-128-128s-128 57.308-128 128c0 70.692 57.308 128 128 128s128-57.308 128-128z" />
<glyph unicode="&#xe937;" glyph-name="check" d="M892.928 906.752c-24.576 14.336-57.344 8.192-75.776-14.336l-432.128-638.976-198.656 198.656c-20.48 20.48-53.248 20.48-75.776 0l-75.776-75.776c-20.48-20.48-20.48-53.248 0-75.776l305.152-305.152c18.432-18.432 45.056-30.72 69.632-30.72s47.104 14.336 63.488 38.912l524.288 768c14.336 24.576 8.192 57.344-14.336 75.776l-90.112 59.392z" />
<glyph unicode="&#xe938;" glyph-name="discount" d="M684.032 386.56c8.192-10.24 12.288-28.672 12.288-51.2s-4.096-40.96-12.288-51.2c-4.096-6.144-12.288-10.24-22.528-10.24s-16.384 4.096-20.48 10.24c-8.192 10.24-12.288 28.672-12.288 51.2s4.096 40.96 12.288 51.2c4.096 6.144 12.288 10.24 20.48 10.24 10.24 0 16.384-4.096 22.528-10.24zM362.496 622.080c-10.24 0-16.384-4.096-22.528-10.24-8.192-10.24-12.288-28.672-12.288-51.2s4.096-40.96 12.288-51.2c4.096-6.144 12.288-10.24 22.528-10.24s16.384 4.096 20.48 10.24c8.192 10.24 12.288 28.672 12.288 51.2s-4.096 40.96-12.288 51.2c-4.096 6.144-12.288 10.24-20.48 10.24zM989.184 376.32l-77.824-73.728 8.192-106.496c2.048-14.336-8.192-28.672-22.528-32.768l-102.4-30.72-40.96-98.304c-6.144-14.336-20.48-20.48-34.816-18.432l-104.448 22.528-81.92-67.584c-6.144-4.096-12.288-6.144-20.48-6.144-6.144 0-14.336 2.048-20.48 6.144l-81.92 67.584-104.448-20.48c-14.336-4.096-28.672 4.096-34.816 18.432l-40.96 98.304-102.4 30.72c-16.384 2.048-24.576 16.384-24.576 30.72l8.192 106.496-77.824 73.728c-10.24 10.24-12.288 26.624-4.096 38.912l57.344 90.112-34.816 102.4c-4.096 14.336 2.048 28.672 14.336 36.864l92.16 53.248 16.384 106.496c2.048 14.336 14.336 24.576 28.672 26.624l106.496 4.096 67.584 83.968c8.192 12.288 24.576 16.384 36.864 10.24l98.304-47.104 96.256 45.056c12.288 6.144 28.672 2.048 36.864-10.24l63.488-86.016 106.496-4.096c14.336 0 26.624-12.288 28.672-26.624l16.384-106.496 92.16-53.248c12.288-8.192 18.432-22.528 14.336-36.864l-34.816-102.4 57.344-90.112c12.288-8.192 10.24-24.576 0-34.816zM360.448 450.048c34.816 0 61.44 10.24 81.92 30.72s30.72 47.104 30.72 81.92c0 32.768-10.24 61.44-30.72 81.92s-47.104 30.72-81.92 30.72c-22.528 0-43.008-4.096-61.44-14.336-16.384-10.24-30.72-22.528-38.912-40.96s-12.288-36.864-12.288-55.296c0-20.48 4.096-38.912 12.288-57.344s20.48-30.72 38.912-40.96c18.432-10.24 38.912-16.384 61.44-16.384zM663.552 671.232h-59.392l-241.664-446.464h59.392l241.664 446.464zM774.144 335.36c0 32.768-10.24 59.392-30.72 79.872s-47.104 30.72-81.92 30.72c-22.528 0-43.008-4.096-61.44-14.336-16.384-10.24-30.72-22.528-38.912-40.96-8.192-16.384-12.288-34.816-12.288-55.296s4.096-38.912 12.288-55.296c8.192-16.384 20.48-30.72 38.912-40.96 16.384-10.24 36.864-14.336 61.44-14.336 34.816 0 61.44 10.24 81.92 30.72 22.528 20.48 30.72 47.104 30.72 79.872z" />
<glyph unicode="&#xe939;" glyph-name="doc" d="M997.376 806.4c-6.144 10.24-14.336 16.384-26.624 18.432l-557.056 110.592c-18.432 4.096-36.864-6.144-43.008-24.576l-182.272-497.664c-6.144-20.48 2.048-40.96 22.528-49.152 20.48-6.144 40.96 2.048 49.152 22.528l169.984 468.992 485.376-96.256c-28.672-88.064-100.352-309.248-172.032-495.616-59.392-159.744-94.208-212.992-161.792-225.28 0 0 0 0 0 0-135.168-18.432-118.784 153.6-118.784 153.6l-430.080 174.080c-45.056-194.56 104.448-239.616 104.448-239.616l315.392-143.36c0 0 53.248-26.624 100.352-22.528 0 0 2.048 0 2.048 0 143.36 4.096 194.56 108.544 258.048 276.48 92.16 241.664 184.32 536.576 186.368 540.672 4.096 8.192 2.048 20.48-2.048 28.672zM743.424 572.928c4.096 0 6.144-2.048 10.24-2.048 16.384 0 32.768 10.24 36.864 28.672 6.144 20.48-6.144 40.96-26.624 47.104l-165.888 45.056c-20.48 6.144-40.96-6.144-47.104-26.624s6.144-40.96 26.624-47.104l165.888-45.056zM485.376 511.488c-6.144-20.48 4.096-40.96 24.576-47.104l163.84-53.248c4.096-2.048 8.192-2.048 12.288-2.048 16.384 0 30.72 10.24 36.864 26.624 6.144 20.48-4.096 40.96-24.576 47.104l-163.84 53.248c-20.48 6.144-43.008-6.144-49.152-24.576zM423.936 357.888c-6.144-20.48 4.096-40.96 24.576-47.104l163.84-53.248c4.096-2.048 8.192-2.048 12.288-2.048 16.384 0 30.72 10.24 36.864 26.624 6.144 20.48-4.096 40.96-24.576 47.104l-163.84 53.248c-20.48 6.144-43.008-4.096-49.152-24.576zM468.992 650.752l8.192 36.864 6.144 36.864h-4.096c-20.48 4.096-40.96-8.192-45.056-28.672s8.192-40.96 28.672-45.056h6.144zM374.784 540.16c-4.096-20.48 8.192-40.96 28.672-45.056l6.144-2.048 8.192 36.864 6.144 36.864h-4.096c-20.48 8.192-40.96-6.144-45.056-26.624zM350.208 349.696l8.192 36.864 6.144 36.864h-4.096c-20.48 4.096-40.96-8.192-45.056-28.672s8.192-40.96 28.672-45.056h6.144z" />
<glyph unicode="&#xe93a;" glyph-name="doc-add" d="M210.944 364.032c20.48-6.144 40.96 2.048 49.152 22.528l169.984 468.992 485.376-96.256c-18.432-57.344-55.296-172.032-100.352-296.96 24.576-6.144 49.152-14.336 71.68-26.624 63.488 180.224 112.64 337.92 112.64 342.016 4.096 10.24 2.048 20.48-4.096 30.72-4.096 8.192-12.288 14.336-24.576 16.384l-557.056 110.592c-18.432 4.096-36.864-6.144-43.008-24.576l-182.272-497.664c-8.192-20.48 2.048-43.008 22.528-49.152zM548.864 38.4c-96.256 12.288-83.968 153.6-83.968 153.6l-430.080 174.080c-45.056-194.56 104.448-239.616 104.448-239.616l315.392-143.36c0 0 53.248-26.624 100.352-22.528 0 0 2.048 0 2.048 0 26.624 0 49.152 4.096 69.632 12.288-30.72 16.384-57.344 38.912-77.824 65.536zM468.992 650.752l8.192 36.864 6.144 36.864h-4.096c-20.48 4.096-40.96-8.192-45.056-28.672s8.192-40.96 28.672-45.056h6.144zM374.784 540.16c-4.096-20.48 8.192-40.96 28.672-45.056l6.144-2.048 8.192 36.864 6.144 36.864h-4.096c-20.48 8.192-40.96-6.144-45.056-26.624zM350.208 349.696l8.192 36.864 6.144 36.864h-4.096c-20.48 4.096-40.96-8.192-45.056-28.672s8.192-40.96 28.672-45.056h6.144zM577.536 617.984l165.888-45.056c4.096 0 6.144-2.048 10.24-2.048 16.384 0 32.768 10.24 36.864 28.672 6.144 20.48-6.144 40.96-26.624 47.104l-165.888 45.056c-20.48 6.144-40.96-6.144-47.104-26.624-4.096-20.48 8.192-40.96 26.624-47.104zM509.952 462.336l106.496-34.816c30.72 18.432 63.488 32.768 100.352 36.864-4.096 6.144-12.288 12.288-20.48 16.384l-163.84 53.248c-20.48 6.144-40.96-4.096-47.104-24.576-6.144-18.432 4.096-40.96 24.576-47.104zM542.72 357.888l-71.68 24.576c-20.48 6.144-40.96-4.096-47.104-24.576s4.096-40.96 24.576-47.104l59.392-18.432c8.192 22.528 20.48 45.056 34.816 65.536zM757.76 427.52c-124.928 0-225.28-100.352-225.28-225.28s100.352-225.28 225.28-225.28 225.28 100.352 225.28 225.28c0 124.928-100.352 225.28-225.28 225.28zM874.496 163.328h-77.824v-77.824h-77.824v77.824h-77.824v77.824h77.824v77.824h77.824v-77.824h77.824v-77.824z" />
<glyph unicode="&#xe93b;" glyph-name="doc-invoice" d="M999.424 808.448c-6.144 10.24-14.336 16.384-24.576 18.432l-563.2 112.64c-18.432 4.096-36.864-6.144-43.008-24.576l-182.272-501.76c-8.192-20.48 2.048-40.96 22.528-49.152 20.48-6.144 40.96 2.048 49.152 22.528l172.032 471.040 487.424-96.256c-28.672-90.112-100.352-309.248-172.032-499.712-61.44-159.744-94.208-215.040-161.792-225.28 0 0 0 0 0 0-135.168-18.432-118.784 153.6-118.784 153.6l-434.176 174.080c-45.056-194.56 104.448-241.664 104.448-241.664l317.44-143.36c0 0 55.296-26.624 100.352-22.528 0 0 2.048 0 2.048 0 145.408 4.096 196.608 108.544 260.096 276.48 92.16 245.76 186.368 542.72 186.368 544.768 4.096 10.24 2.048 22.528-2.048 30.72zM428.032 507.392l-32.768 10.24-14.336-51.2 38.912-12.288c-6.144-47.104 4.096-88.064 26.624-120.832 22.528-34.816 57.344-57.344 104.448-71.68 32.768-10.24 63.488-12.288 88.064-8.192l20.48 73.728c-28.672-4.096-55.296-2.048-83.968 6.144-51.2 14.336-75.776 47.104-71.68 96.256l96.256-28.672 14.336 51.2-100.352 28.672 2.048 10.24 4.096 14.336 4.096 10.24 118.784-34.816 14.336 51.2-114.688 32.768c12.288 24.576 26.624 40.96 45.056 49.152s40.96 10.24 63.488 4.096c12.288-4.096 24.576-8.192 34.816-14.336s20.48-14.336 32.768-24.576l47.104 57.344c-26.624 24.576-57.344 43.008-94.208 53.248-47.104 14.336-88.064 10.24-126.976-6.144-38.912-18.432-67.584-49.152-88.064-92.16l-38.912 10.24-14.336-51.2 32.768-10.24-4.096-14.336c-2.048-8.192-4.096-14.336-4.096-18.432z" />
<glyph unicode="&#xe93c;" glyph-name="document" d="M786.432 779.776c-8.192 10.24-18.432 18.432-28.672 28.672-8.192 8.192-18.432 18.432-26.624 28.672-65.536 65.536-102.4 102.4-143.36 102.4h-303.104c-81.92 0-151.552-67.584-151.552-151.552v-679.936c0-83.968 67.584-151.552 151.552-151.552h454.656c83.968 0 151.552 67.584 151.552 151.552v528.384c0 40.96-38.912 79.872-104.448 143.36zM815.104 108.032c0-40.96-34.816-75.776-75.776-75.776h-454.656c-40.96 0-75.776 34.816-75.776 75.776v679.936c0 40.96 34.816 75.776 75.776 75.776h276.48c26.624-6.144 26.624-40.96 26.624-73.728v-114.688c0-20.48 16.384-36.864 36.864-36.864h112.64c36.864 0 75.776 0 75.776-36.864v-493.568z" />
<glyph unicode="&#xe93d;" glyph-name="document-add" d="M530.432 3.584c-8.192 8.192-16.384 18.432-24.576 28.672h-221.184c-40.96 0-75.776 34.816-75.776 75.776v679.936c0 40.96 34.816 75.776 75.776 75.776h276.48c26.624-6.144 26.624-40.96 26.624-73.728v-114.688c0-20.48 16.384-36.864 36.864-36.864h112.64c36.864 0 75.776 0 75.776-36.864v-92.16c26.624-6.144 51.2-16.384 75.776-28.672v157.696c0 40.96-36.864 77.824-102.4 143.36-8.192 8.192-18.432 16.384-28.672 26.624-8.192 8.192-18.432 18.432-26.624 28.672-65.536 65.536-102.4 102.4-143.36 102.4h-303.104c-81.92 0-151.552-67.584-151.552-151.552v-679.936c0-83.968 67.584-151.552 151.552-151.552h307.2c-22.528 12.288-43.008 28.672-61.44 47.104zM559.104 400.896c-102.4-102.4-102.4-266.24 0-368.64s266.24-102.4 368.64 0 102.4 266.24 0 368.64-266.24 102.4-368.64 0zM888.832 237.056v-38.912c0-8.192-6.144-12.288-12.288-12.288h-100.352v-100.352c0-8.192-6.144-12.288-12.288-12.288h-38.912c-8.192 0-12.288 6.144-12.288 12.288v100.352h-100.352c-8.192 0-12.288 6.144-12.288 12.288v38.912c0 8.192 6.144 14.336 12.288 12.288h100.352v100.352c0 8.192 6.144 14.336 12.288 12.288h38.912c8.192 0 12.288-6.144 14.336-12.288v-100.352h100.352c4.096 0 10.24-6.144 10.24-12.288z" />
</font>
</defs>
</svg>
